<?xml version="1.0" encoding="UTF-8"?>
<!DOCTYPE svg PUBLIC "-//W3C//DTD SVG 1.1//EN" "http://www.w3.org/Graphics/SVG/1.1/DTD/svg11.dtd">
<svg version="1.1" xmlns="http://www.w3.org/2000/svg" xmlns:xlink="http://www.w3.org/1999/xlink" width="180" height="80"  xml:space="preserve" id="glugnet3">
    <!-- Generated by PaintCode - http://www.paintcodeapp.com -->
    <path id="glugnet3-gLUG" stroke="none" fill="rgb(24, 69, 59)" d="M 14.77,34.82 L 21.18,34.82 21.18,31.54 C 21.18,28.37 19.66,26.85 16.49,26.85 L 6.35,26.85 C 3.17,26.85 1.66,28.37 1.66,31.54 L 1.66,46.31 C 1.66,49.48 3.17,51 6.35,51 L 16.49,51 C 19.66,51 21.18,49.48 21.18,46.31 L 21.18,36.92 10.9,36.92 10.9,42.03 14.77,42.03 14.77,45.07 C 14.77,45.55 14.63,45.69 14.15,45.69 L 8.76,45.69 C 8.28,45.69 8.14,45.55 8.14,45.07 L 8.14,32.78 C 8.14,32.3 8.28,32.16 8.76,32.16 L 14.15,32.16 C 14.63,32.16 14.77,32.3 14.77,32.78 L 14.77,34.82 Z M 43.37,51 L 43.37,41.51 38.19,41.51 38.19,45.72 32.84,45.72 32.84,31.75 35.95,31.75 35.95,26.85 23.46,26.85 23.46,31.75 26.36,31.75 26.36,46.1 23.46,46.1 23.46,51 43.37,51 Z M 68.41,31.75 L 68.41,26.85 56.96,26.85 56.96,31.75 59.03,31.75 59.03,44.79 C 59.03,45.2 58.82,45.41 58.41,45.41 L 53.72,45.41 C 53.3,45.41 53.1,45.2 53.1,44.79 L 53.1,31.75 55.17,31.75 55.17,26.85 43.71,26.85 43.71,31.75 46.61,31.75 46.61,46.31 C 46.61,49.34 48.27,51 51.3,51 L 60.82,51 C 63.86,51 65.52,49.34 65.52,46.31 L 65.52,31.75 68.41,31.75 Z M 83.52,34.82 L 89.94,34.82 89.94,31.54 C 89.94,28.37 88.42,26.85 85.25,26.85 L 75.11,26.85 C 71.93,26.85 70.41,28.37 70.41,31.54 L 70.41,46.31 C 70.41,49.48 71.93,51 75.11,51 L 85.25,51 C 88.42,51 89.94,49.48 89.94,46.31 L 89.94,36.92 79.66,36.92 79.66,42.03 83.52,42.03 83.52,45.07 C 83.52,45.55 83.39,45.69 82.9,45.69 L 77.52,45.69 C 77.04,45.69 76.9,45.55 76.9,45.07 L 76.9,32.78 C 76.9,32.3 77.04,32.16 77.52,32.16 L 82.9,32.16 C 83.39,32.16 83.52,32.3 83.52,32.78 L 83.52,34.82 Z M 83.52,34.82" />
    <circle id="glugnet3-oval" stroke="none" fill="rgb(128, 128, 128)" cx="99" cy="40" r="5" />
    <path id="glugnet3-bezier2" stroke="none" fill="rgb(24, 69, 59)" d="M 176,40 C 176,61.54 158.54,79 137,79 117.85,79 101.92,65.19 98.62,46.99 98.75,47 98.87,47 99,47 102.87,47 106,43.87 106,40 106,36.13 102.87,33 99,33 98.87,33 98.75,33 98.63,33.01 99.21,29.77 100.2,26.67 101.53,23.76 107.69,10.33 121.26,1 137,1 158.54,1 176,18.46 176,40 Z M 176,40" />
    <path id="glugnet3-nET" stroke="none" fill="rgb(128, 128, 128)" d="M 107.69,28.23 L 107.69,52 112.21,52 112.21,35.92 125.33,52 129.45,52 129.45,28.23 124.89,28.23 124.89,43.91 112,28.23 107.69,28.23 Z M 134.82,28.23 L 134.82,52 149.78,52 149.78,48.36 139.61,48.36 139.61,41.7 149.13,41.7 149.13,38.2 139.61,38.2 139.61,31.87 149.47,31.87 149.47,28.23 134.82,28.23 Z M 170.55,31.77 L 170.55,28.23 151.75,28.23 151.75,31.77 158.75,31.77 158.75,52 163.55,52 163.55,31.77 170.55,31.77 Z M 170.55,31.77" />
    <path id="glugnet3-fullName" stroke="none" fill="rgb(128, 128, 128)" d="M 4.71,57.6 L 5.38,57.6 5.38,57.08 C 5.38,56.41 5.07,56.1 4.4,56.1 L 2.8,56.1 C 2.14,56.1 1.82,56.41 1.82,57.08 L 1.82,60.02 C 1.82,60.68 2.14,61 2.8,61 L 4.4,61 C 5.07,61 5.38,60.68 5.38,60.02 L 5.38,58.41 3.52,58.41 3.52,59.01 4.71,59.01 4.71,60 C 4.71,60.28 4.6,60.38 4.33,60.38 L 2.88,60.38 C 2.6,60.38 2.5,60.28 2.5,60 L 2.5,57.1 C 2.5,56.82 2.6,56.72 2.88,56.72 L 4.33,56.72 C 4.6,56.72 4.71,56.82 4.71,57.1 L 4.71,57.6 Z M 8.68,57.22 L 8.5,57.22 C 7.94,57.22 7.64,57.48 7.33,57.78 L 7.33,57.22 6.1,57.22 6.1,57.73 6.7,57.74 6.7,60.49 6.1,60.49 6.1,61 8.07,61 8.07,60.49 7.33,60.49 7.33,58.2 C 7.68,57.99 7.99,57.83 8.44,57.83 L 8.68,57.83 8.68,57.22 Z M 9.87,59.26 L 12.2,59.26 12.2,58.16 C 12.2,57.52 11.9,57.22 11.26,57.22 L 10.17,57.22 C 9.53,57.22 9.23,57.52 9.23,58.16 L 9.23,60.06 C 9.23,60.7 9.53,61 10.17,61 L 11.26,61 C 11.9,61 12.2,60.7 12.2,60.06 L 12.2,59.8 11.56,59.8 11.56,60.08 C 11.56,60.35 11.46,60.46 11.18,60.46 L 10.25,60.46 C 9.98,60.46 9.87,60.35 9.87,60.08 L 9.87,59.26 Z M 11.18,57.76 C 11.46,57.76 11.56,57.87 11.56,58.14 L 11.56,58.79 9.87,58.79 9.87,58.14 C 9.87,57.87 9.98,57.76 10.25,57.76 L 11.18,57.76 Z M 16.49,60.49 L 15.93,60.49 15.93,58.16 C 15.93,57.52 15.63,57.22 14.99,57.22 L 13.99,57.22 C 13.35,57.22 13.05,57.52 13.05,58.16 L 13.05,58.28 13.69,58.28 13.69,58.14 C 13.69,57.87 13.79,57.77 14.07,57.77 L 14.91,57.77 C 15.19,57.77 15.29,57.87 15.29,58.14 L 15.29,58.72 C 14.73,58.74 14.22,58.79 13.89,58.82 13.26,58.89 12.93,59.13 12.93,59.91 12.93,60.7 13.23,61.02 14,61.02 14.68,61.02 15,60.83 15.29,60.46 L 15.29,61 16.49,61 16.49,60.49 Z M 15.29,59.14 L 15.29,60.07 C 14.91,60.32 14.63,60.46 14.06,60.46 13.66,60.46 13.56,60.33 13.56,59.88 13.56,59.43 13.67,59.35 13.96,59.31 L 15.29,59.14 Z M 17.86,57.76 L 18.76,57.76 18.76,57.22 17.86,57.22 17.86,56.31 17.23,56.31 17.23,57.22 16.66,57.22 16.66,57.76 17.22,57.76 17.22,60.06 C 17.22,60.7 17.53,61 18.16,61 L 18.76,61 18.76,60.45 18.24,60.45 C 17.97,60.45 17.86,60.34 17.86,60.07 L 17.86,57.76 Z M 20.09,59.26 L 22.42,59.26 22.42,58.16 C 22.42,57.52 22.12,57.22 21.48,57.22 L 20.39,57.22 C 19.75,57.22 19.45,57.52 19.45,58.16 L 19.45,60.06 C 19.45,60.7 19.75,61 20.39,61 L 21.48,61 C 22.12,61 22.42,60.7 22.42,60.06 L 22.42,59.8 21.78,59.8 21.78,60.08 C 21.78,60.35 21.68,60.46 21.4,60.46 L 20.47,60.46 C 20.2,60.46 20.09,60.35 20.09,60.08 L 20.09,59.26 Z M 21.4,57.76 C 21.68,57.76 21.78,57.87 21.78,58.14 L 21.78,58.79 20.09,58.79 20.09,58.14 C 20.09,57.87 20.2,57.76 20.47,57.76 L 21.4,57.76 Z M 25.57,57.22 L 25.38,57.22 C 24.83,57.22 24.53,57.48 24.22,57.78 L 24.22,57.22 22.99,57.22 22.99,57.73 23.58,57.74 23.58,60.49 22.99,60.49 22.99,61 24.95,61 24.95,60.49 24.22,60.49 24.22,58.2 C 24.56,57.99 24.88,57.83 25.32,57.83 L 25.57,57.83 25.57,57.22 Z M 31.73,61 L 31.73,59.43 31.11,59.43 31.11,60.41 29.29,60.41 29.29,56.67 30.09,56.67 30.09,56.1 27.95,56.1 27.95,56.67 28.62,56.67 28.62,60.43 27.95,60.43 27.95,61 31.73,61 Z M 35.91,60.49 L 35.35,60.49 35.35,58.16 C 35.35,57.52 35.05,57.22 34.42,57.22 L 33.42,57.22 C 32.78,57.22 32.48,57.52 32.48,58.16 L 32.48,58.28 33.11,58.28 33.11,58.14 C 33.11,57.87 33.22,57.77 33.49,57.77 L 34.34,57.77 C 34.61,57.77 34.72,57.87 34.72,58.14 L 34.72,58.72 C 34.15,58.74 33.65,58.79 33.31,58.82 32.68,58.89 32.35,59.13 32.35,59.91 32.35,60.7 32.65,61.02 33.42,61.02 34.11,61.02 34.42,60.83 34.72,60.46 L 34.72,61 35.91,61 35.91,60.49 Z M 34.71,59.14 L 34.71,60.07 C 34.34,60.32 34.05,60.46 33.49,60.46 33.09,60.46 32.98,60.33 32.98,59.88 32.98,59.43 33.09,59.35 33.39,59.31 L 34.71,59.14 Z M 40.51,60.49 L 39.95,60.49 39.95,58.13 C 39.95,57.49 39.65,57.19 38.9,57.19 38.22,57.19 37.94,57.42 37.61,57.75 L 37.61,57.22 36.38,57.22 36.38,57.73 36.97,57.73 36.97,60.49 36.38,60.49 36.38,61 38.16,61 38.16,60.49 37.61,60.49 37.61,58.14 C 37.98,57.89 38.27,57.77 38.83,57.77 39.2,57.77 39.32,57.87 39.32,58.15 L 39.32,60.49 38.77,60.49 38.77,61 40.51,61 40.51,60.49 Z M 43.26,58.33 L 43.89,58.33 43.89,58.16 C 43.89,57.52 43.59,57.22 42.95,57.22 L 42.03,57.22 C 41.39,57.22 41.09,57.52 41.09,58.29 41.09,58.93 41.34,59.14 41.91,59.24 L 42.98,59.41 C 43.24,59.45 43.34,59.52 43.34,59.91 43.34,60.35 43.24,60.46 42.96,60.46 L 42.04,60.46 C 41.77,60.46 41.66,60.35 41.66,60.08 L 41.66,59.82 41.04,59.82 41.04,60.06 C 41.04,60.7 41.34,61 41.98,61 L 43.04,61 C 43.68,61 43.98,60.7 43.98,59.87 43.98,59.18 43.73,58.97 43.16,58.87 L 42.08,58.7 C 41.82,58.66 41.72,58.59 41.72,58.25 41.72,57.87 41.83,57.76 42.1,57.76 L 42.89,57.76 C 43.16,57.76 43.26,57.87 43.26,58.14 L 43.26,58.33 Z M 45.83,56.69 L 45.83,55.98 45.12,55.98 45.12,56.69 45.83,56.69 Z M 46.37,60.49 L 45.79,60.49 45.79,57.22 44.55,57.22 44.55,57.73 45.15,57.73 45.15,60.49 44.55,60.49 44.55,61 46.37,61 46.37,60.49 Z M 51.01,60.49 L 50.45,60.49 50.45,58.13 C 50.45,57.49 50.15,57.19 49.39,57.19 48.71,57.19 48.44,57.42 48.1,57.75 L 48.1,57.22 46.87,57.22 46.87,57.73 47.46,57.73 47.46,60.49 46.87,60.49 46.87,61 48.65,61 48.65,60.49 48.1,60.49 48.1,58.14 C 48.47,57.89 48.76,57.77 49.32,57.77 49.7,57.77 49.81,57.87 49.81,58.15 L 49.81,60.49 49.26,60.49 49.26,61 51.01,61 51.01,60.49 Z M 55.21,57.73 L 55.21,57.22 54.01,57.22 54.01,57.75 C 53.68,57.42 53.4,57.19 52.68,57.19 51.87,57.19 51.57,57.49 51.57,58.15 L 51.57,59.94 C 51.57,60.61 51.87,60.91 52.68,60.91 53.4,60.91 53.68,60.67 54.01,60.35 L 54.01,61.2 C 54.01,61.48 53.9,61.58 53.63,61.58 L 52.01,61.58 52.01,62.12 53.71,62.12 C 54.35,62.12 54.65,61.82 54.65,61.18 L 54.65,57.73 55.21,57.73 Z M 54.01,59.95 C 53.64,60.19 53.35,60.33 52.75,60.33 52.32,60.33 52.21,60.22 52.21,59.95 L 52.21,58.15 C 52.21,57.88 52.32,57.77 52.75,57.77 53.35,57.77 53.64,57.9 54.01,58.15 L 54.01,59.95 Z M 62.34,56.67 L 62.34,56.1 60.37,56.1 60.37,56.67 61.04,56.67 61.04,60 C 61.04,60.28 60.94,60.38 60.66,60.38 L 59.27,60.38 C 58.99,60.38 58.88,60.28 58.88,60 L 58.88,56.67 59.55,56.67 59.55,56.1 57.59,56.1 57.59,56.67 58.21,56.67 58.21,60.02 C 58.21,60.68 58.52,61 59.19,61 L 60.74,61 C 61.4,61 61.72,60.68 61.72,60.02 L 61.72,56.67 62.34,56.67 Z M 65.07,58.33 L 65.69,58.33 65.69,58.16 C 65.69,57.52 65.39,57.22 64.75,57.22 L 63.83,57.22 C 63.19,57.22 62.89,57.52 62.89,58.29 62.89,58.93 63.14,59.14 63.71,59.24 L 64.79,59.41 C 65.05,59.45 65.15,59.52 65.15,59.91 65.15,60.35 65.04,60.46 64.77,60.46 L 63.84,60.46 C 63.58,60.46 63.47,60.35 63.47,60.08 L 63.47,59.82 62.84,59.82 62.84,60.06 C 62.84,60.7 63.14,61 63.78,61 L 64.85,61 C 65.48,61 65.78,60.7 65.78,59.87 65.78,59.18 65.53,58.97 64.96,58.87 L 63.89,58.7 C 63.63,58.66 63.53,58.59 63.53,58.25 63.53,57.87 63.63,57.76 63.91,57.76 L 64.69,57.76 C 64.96,57.76 65.07,57.87 65.07,58.14 L 65.07,58.33 Z M 67.2,59.26 L 69.53,59.26 69.53,58.16 C 69.53,57.52 69.23,57.22 68.59,57.22 L 67.5,57.22 C 66.86,57.22 66.56,57.52 66.56,58.16 L 66.56,60.06 C 66.56,60.7 66.86,61 67.5,61 L 68.59,61 C 69.23,61 69.53,60.7 69.53,60.06 L 69.53,59.8 68.89,59.8 68.89,60.08 C 68.89,60.35 68.79,60.46 68.51,60.46 L 67.58,60.46 C 67.31,60.46 67.2,60.35 67.2,60.08 L 67.2,59.26 Z M 68.51,57.76 C 68.79,57.76 68.89,57.87 68.89,58.14 L 68.89,58.79 67.2,58.79 67.2,58.14 C 67.2,57.87 67.31,57.76 67.58,57.76 L 68.51,57.76 Z M 72.68,57.22 L 72.49,57.22 C 71.94,57.22 71.64,57.48 71.33,57.78 L 71.33,57.22 70.1,57.22 70.1,57.73 70.69,57.74 70.69,60.49 70.1,60.49 70.1,61 72.06,61 72.06,60.49 71.33,60.49 71.33,58.2 C 71.67,57.99 71.99,57.83 72.43,57.83 L 72.68,57.83 72.68,57.22 Z M 78.17,57.6 L 78.84,57.6 78.84,57.08 C 78.84,56.41 78.52,56.1 77.86,56.1 L 76.26,56.1 C 75.6,56.1 75.28,56.41 75.28,57.08 L 75.28,60.02 C 75.28,60.68 75.6,61 76.26,61 L 77.86,61 C 78.52,61 78.84,60.68 78.84,60.02 L 78.84,58.41 76.98,58.41 76.98,59.01 78.17,59.01 78.17,60 C 78.17,60.28 78.06,60.38 77.79,60.38 L 76.34,60.38 C 76.06,60.38 75.95,60.28 75.95,60 L 75.95,57.1 C 75.95,56.82 76.06,56.72 76.34,56.72 L 77.79,56.72 C 78.06,56.72 78.17,56.82 78.17,57.1 L 78.17,57.6 Z M 82.14,57.22 L 81.95,57.22 C 81.4,57.22 81.1,57.48 80.79,57.78 L 80.79,57.22 79.56,57.22 79.56,57.73 80.15,57.74 80.15,60.49 79.56,60.49 79.56,61 81.53,61 81.53,60.49 80.79,60.49 80.79,58.2 C 81.13,57.99 81.45,57.83 81.9,57.83 L 82.14,57.83 82.14,57.22 Z M 83.63,57.22 C 82.99,57.22 82.69,57.52 82.69,58.16 L 82.69,60.06 C 82.69,60.7 82.99,61 83.63,61 L 84.76,61 C 85.4,61 85.7,60.7 85.7,60.06 L 85.7,58.16 C 85.7,57.52 85.4,57.22 84.76,57.22 L 83.63,57.22 Z M 85.06,60.06 C 85.06,60.32 84.95,60.43 84.68,60.43 L 83.7,60.43 C 83.43,60.43 83.33,60.32 83.33,60.06 L 83.33,58.16 C 83.33,57.9 83.43,57.79 83.7,57.79 L 84.68,57.79 C 84.95,57.79 85.06,57.9 85.06,58.16 L 85.06,60.06 Z M 90.37,60.49 L 89.8,60.49 89.8,57.22 88.5,57.22 88.5,57.73 89.16,57.73 89.16,60.07 C 88.79,60.31 88.51,60.45 87.95,60.45 87.57,60.45 87.46,60.34 87.46,60.06 L 87.46,57.22 86.27,57.22 86.27,57.73 86.82,57.73 86.82,60.09 C 86.82,60.73 87.12,61.03 87.88,61.03 88.55,61.03 88.83,60.8 89.16,60.47 L 89.16,61 90.37,61 90.37,60.49 Z M 93.18,57.19 C 92.46,57.19 92.19,57.42 91.85,57.75 L 91.85,57.22 90.62,57.22 90.62,57.73 91.21,57.73 91.21,61.61 90.62,61.61 90.62,62.12 92.57,62.12 92.57,61.61 91.85,61.61 91.85,60.47 C 92.19,60.8 92.46,61.03 93.18,61.03 93.99,61.03 94.29,60.73 94.29,60.07 L 94.29,58.15 C 94.29,57.49 93.99,57.19 93.18,57.19 Z M 93.66,60.05 C 93.66,60.34 93.55,60.45 93.12,60.45 92.52,60.45 92.23,60.32 91.86,60.07 L 91.86,58.15 C 92.23,57.9 92.52,57.77 93.12,57.77 93.55,57.77 93.66,57.88 93.66,58.17 L 93.66,60.05 Z M 93.66,60.05" />
    <path id="glugnet3-fullName2" stroke="none" fill="rgb(128, 128, 128)" d="M 18.17,64.42 L 18.17,63.89 17.52,63.89 C 16.88,63.89 16.58,64.19 16.58,64.83 L 16.58,65.22 15.97,65.22 15.97,65.76 16.58,65.76 16.58,68.49 15.94,68.49 15.94,69 17.98,69 17.98,68.49 17.22,68.49 17.22,65.76 18.11,65.76 18.11,65.22 17.21,65.22 17.21,64.79 C 17.21,64.52 17.32,64.42 17.59,64.42 L 18.17,64.42 Z M 19.59,65.22 C 18.96,65.22 18.65,65.52 18.65,66.16 L 18.65,68.06 C 18.65,68.7 18.96,69 19.59,69 L 20.73,69 C 21.36,69 21.66,68.7 21.66,68.06 L 21.66,66.16 C 21.66,65.52 21.36,65.22 20.73,65.22 L 19.59,65.22 Z M 21.03,68.06 C 21.03,68.32 20.92,68.43 20.65,68.43 L 19.67,68.43 C 19.4,68.43 19.29,68.32 19.29,68.06 L 19.29,66.17 C 19.29,65.9 19.4,65.79 19.67,65.79 L 20.65,65.79 C 20.92,65.79 21.03,65.9 21.03,66.17 L 21.03,68.06 Z M 24.84,65.22 L 24.65,65.22 C 24.1,65.22 23.8,65.48 23.49,65.78 L 23.49,65.22 22.26,65.22 22.26,65.73 22.85,65.74 22.85,68.49 22.26,68.49 22.26,69 24.23,69 24.23,68.49 23.49,68.49 23.49,66.2 C 23.83,65.99 24.15,65.83 24.6,65.83 L 24.84,65.83 24.84,65.22 Z M 28.23,69 L 28.23,68.16 27.41,68.16 27.41,69 28.23,69 Z M 33.97,64.67 L 33.97,64.1 31.96,64.1 31.96,64.67 32.71,64.67 32.71,67.91 30.44,64.1 29.02,64.1 29.02,64.67 29.69,64.67 29.69,68.43 29.02,68.43 29.02,69 31.07,69 31.07,68.43 30.32,68.43 30.32,65.07 32.67,69 33.34,69 33.34,64.67 33.97,64.67 Z M 38.35,64.1 L 34.54,64.1 34.54,64.67 35.22,64.67 35.22,68.43 34.54,68.43 34.54,69 38.35,69 38.35,67.66 37.74,67.66 37.74,68.42 35.89,68.42 35.89,66.8 37.83,66.8 37.83,66.2 35.89,66.2 35.89,64.68 37.74,64.68 37.74,65.44 38.35,65.44 38.35,64.1 Z M 43.19,64.1 L 39.07,64.1 39.07,65.61 39.68,65.61 39.68,64.69 40.8,64.69 40.8,68.43 40,68.43 40,69 42.27,69 42.27,68.43 41.47,68.43 41.47,64.69 42.58,64.69 42.58,65.61 43.19,65.61 43.19,64.1 Z M 45.5,68.43 L 45.5,69 48.66,69 C 49.33,69 49.64,68.68 49.64,68.02 L 49.64,65.08 C 49.64,64.41 49.33,64.1 48.66,64.1 L 45.5,64.1 45.5,64.67 46.17,64.67 46.17,68.43 45.5,68.43 Z M 46.84,68.38 L 46.84,64.72 48.59,64.72 C 48.87,64.72 48.97,64.82 48.97,65.1 L 48.97,68 C 48.97,68.28 48.87,68.38 48.59,68.38 L 46.84,68.38 Z M 51.22,67.26 L 53.55,67.26 53.55,66.16 C 53.55,65.52 53.25,65.22 52.61,65.22 L 51.52,65.22 C 50.88,65.22 50.58,65.52 50.58,66.16 L 50.58,68.06 C 50.58,68.7 50.88,69 51.52,69 L 52.61,69 C 53.25,69 53.55,68.7 53.55,68.06 L 53.55,67.8 52.91,67.8 52.91,68.08 C 52.91,68.35 52.81,68.46 52.53,68.46 L 51.6,68.46 C 51.33,68.46 51.22,68.35 51.22,68.08 L 51.22,67.26 Z M 52.53,65.76 C 52.81,65.76 52.91,65.87 52.91,66.14 L 52.91,66.79 51.22,66.79 51.22,66.14 C 51.22,65.87 51.33,65.76 51.6,65.76 L 52.53,65.76 Z M 57.84,65.73 L 57.84,65.22 56.34,65.22 56.34,65.73 56.77,65.73 55.91,68.45 55.05,65.73 55.5,65.73 55.5,65.22 53.96,65.22 53.96,65.73 54.4,65.73 55.52,69 56.28,69 57.4,65.73 57.84,65.73 Z M 58.92,67.26 L 61.25,67.26 61.25,66.16 C 61.25,65.52 60.95,65.22 60.31,65.22 L 59.22,65.22 C 58.58,65.22 58.28,65.52 58.28,66.16 L 58.28,68.06 C 58.28,68.7 58.58,69 59.22,69 L 60.31,69 C 60.95,69 61.25,68.7 61.25,68.06 L 61.25,67.8 60.61,67.8 60.61,68.08 C 60.61,68.35 60.51,68.46 60.23,68.46 L 59.3,68.46 C 59.03,68.46 58.92,68.35 58.92,68.08 L 58.92,67.26 Z M 60.23,65.76 C 60.51,65.76 60.61,65.87 60.61,66.14 L 60.61,66.79 58.92,66.79 58.92,66.14 C 58.92,65.87 59.03,65.76 59.3,65.76 L 60.23,65.76 Z M 63.68,68.49 L 63.1,68.49 63.1,63.89 61.85,63.89 61.85,64.4 62.46,64.4 62.46,68.49 61.85,68.49 61.85,69 63.68,69 63.68,68.49 Z M 65.22,65.22 C 64.58,65.22 64.28,65.52 64.28,66.16 L 64.28,68.06 C 64.28,68.7 64.58,69 65.22,69 L 66.35,69 C 66.99,69 67.29,68.7 67.29,68.06 L 67.29,66.16 C 67.29,65.52 66.99,65.22 66.35,65.22 L 65.22,65.22 Z M 66.65,68.06 C 66.65,68.32 66.54,68.43 66.28,68.43 L 65.3,68.43 C 65.02,68.43 64.92,68.32 64.92,68.06 L 64.92,66.17 C 64.92,65.9 65.02,65.79 65.3,65.79 L 66.28,65.79 C 66.54,65.79 66.65,65.9 66.65,66.17 L 66.65,68.06 Z M 70.42,65.19 C 69.7,65.19 69.43,65.42 69.09,65.75 L 69.09,65.22 67.86,65.22 67.86,65.73 68.45,65.73 68.45,69.61 67.86,69.61 67.86,70.12 69.8,70.12 69.8,69.61 69.09,69.61 69.09,68.47 C 69.43,68.8 69.7,69.03 70.42,69.03 71.22,69.03 71.53,68.73 71.53,68.07 L 71.53,66.15 C 71.53,65.49 71.22,65.19 70.42,65.19 Z M 70.9,68.05 C 70.9,68.34 70.78,68.45 70.36,68.45 69.75,68.45 69.47,68.32 69.1,68.07 L 69.1,66.15 C 69.47,65.9 69.75,65.77 70.36,65.77 70.78,65.77 70.9,65.88 70.9,66.17 L 70.9,68.05 Z M 72.99,67.26 L 75.32,67.26 75.32,66.16 C 75.32,65.52 75.02,65.22 74.38,65.22 L 73.29,65.22 C 72.65,65.22 72.35,65.52 72.35,66.16 L 72.35,68.06 C 72.35,68.7 72.65,69 73.29,69 L 74.38,69 C 75.02,69 75.32,68.7 75.32,68.06 L 75.32,67.8 74.68,67.8 74.68,68.08 C 74.68,68.35 74.58,68.46 74.3,68.46 L 73.37,68.46 C 73.1,68.46 72.99,68.35 72.99,68.08 L 72.99,67.26 Z M 74.3,65.76 C 74.58,65.76 74.68,65.87 74.68,66.14 L 74.68,66.79 72.99,66.79 72.99,66.14 C 72.99,65.87 73.1,65.76 73.37,65.76 L 74.3,65.76 Z M 78.47,65.22 L 78.28,65.22 C 77.73,65.22 77.43,65.48 77.12,65.78 L 77.12,65.22 75.89,65.22 75.89,65.73 76.48,65.74 76.48,68.49 75.89,68.49 75.89,69 77.85,69 77.85,68.49 77.12,68.49 77.12,66.2 C 77.46,65.99 77.78,65.83 78.22,65.83 L 78.47,65.83 78.47,65.22 Z M 81.2,66.33 L 81.82,66.33 81.82,66.16 C 81.82,65.52 81.52,65.22 80.88,65.22 L 79.96,65.22 C 79.32,65.22 79.02,65.52 79.02,66.29 79.02,66.93 79.27,67.14 79.84,67.24 L 80.92,67.41 C 81.18,67.45 81.28,67.52 81.28,67.92 81.28,68.35 81.17,68.46 80.9,68.46 L 79.97,68.46 C 79.71,68.46 79.6,68.35 79.6,68.08 L 79.6,67.82 78.97,67.82 78.97,68.06 C 78.97,68.7 79.27,69 79.91,69 L 80.98,69 C 81.61,69 81.91,68.7 81.91,67.87 81.91,67.18 81.66,66.97 81.09,66.87 L 80.02,66.7 C 79.76,66.66 79.66,66.59 79.66,66.25 79.66,65.87 79.76,65.76 80.04,65.76 L 80.82,65.76 C 81.09,65.76 81.2,65.87 81.2,66.14 L 81.2,66.33 Z M 81.2,66.33" />
</svg>
