<?xml version="1.0" encoding="UTF-8"?>
<!DOCTYPE svg PUBLIC "-//W3C//DTD SVG 1.1//EN" "http://www.w3.org/Graphics/SVG/1.1/DTD/svg11.dtd">
<svg version="1.1" xmlns="http://www.w3.org/2000/svg" xmlns:xlink="http://www.w3.org/1999/xlink" width="448" height="314"  xml:space="preserve" id="canvas4">
    <!-- Generated by PaintCode - http://www.paintcodeapp.com -->
    <g id="canvas4-gscc_nh_logoGroup">
        <path id="canvas4-bezier2" stroke="none" fill="rgb(16, 67, 145)" d="M 35.49,314 C 34.69,313.82 33.89,313.51 33.07,313.47 27.77,313.23 22.46,308.29 22.44,302.58 22.42,298 22.23,293.42 22.01,288.85 21.7,282.81 20.1,278.67 12.87,277.76 L 12.87,268.25 C 13.49,268.1 14.19,267.88 14.9,267.75 18.18,267.15 21.24,264.29 21.52,260.94 21.99,255.31 22.27,249.65 22.41,244 22.58,237.25 26.97,233.14 33.18,232.54 35.89,232.28 38.61,232.16 41.52,231.97 L 41.52,241.82 C 40.01,241.99 38.53,242.11 37.08,242.34 33.83,242.85 33.01,243.8 32.88,247.12 32.74,250.53 32.5,253.95 32.54,257.36 32.6,263.61 30.91,269 25.5,272.67 26.75,274.13 27.74,275.55 28.99,276.69 31.8,279.24 32.05,282.68 32.34,286.05 32.66,289.86 32.74,293.7 32.83,297.53 32.95,302.32 33.68,303.19 38.36,303.73 39.35,303.85 40.34,303.96 41.49,304.08 L 41.49,314 35.49,314 Z M 35.49,314" />
        <path id="canvas4-bezier3" stroke="none" fill="rgb(16, 67, 145)" d="M 404,314 L 404,304.13 C 405.42,303.96 406.72,303.79 408.02,303.64 411.5,303.23 412.46,302.22 412.65,298.71 412.9,293.81 413.03,288.9 413.41,284 413.78,279.22 416.68,275.88 420.36,272.85 415.01,269.14 412.84,263.83 412.96,257.36 413.03,253.95 412.76,250.54 412.62,247.13 412.48,243.58 411.77,242.8 408.28,242.31 406.97,242.13 405.65,242 404.1,241.83 L 404.1,232.13 C 409.75,232.33 415.52,231.42 420.15,236.11 422.89,238.89 423.06,242.37 423.29,245.82 423.6,250.3 423.46,254.81 423.85,259.28 424.28,264.23 426.71,266.74 431.53,267.89 431.92,267.98 432.29,268.13 432.74,268.27 432.78,268.92 432.84,269.49 432.84,270.06 432.86,272.56 432.85,275.04 432.85,277.68 432.12,277.86 431.5,278.05 430.88,278.17 427.15,278.89 424.24,281.72 423.93,285.52 423.5,290.82 423.27,296.14 423.2,301.46 423.1,308.57 418.8,312.87 411.91,313.54 411.43,313.59 410.97,313.84 410.5,314 L 404,314 Z M 404,314" />
        <path id="canvas4-bezier4" stroke="none" fill="rgb(200, 212, 230)" d="M 249.34,9.39 C 249.14,7.86 249.04,6.21 248.65,4.62 248.51,4.05 247.71,3.31 247.16,3.26 246.6,3.21 245.81,3.79 245.41,4.32 243.93,6.29 243.94,12.61 245.44,14.53 245.84,15.04 246.64,15.6 247.19,15.53 247.75,15.47 248.53,14.74 248.67,14.17 249.04,12.66 249.12,11.08 249.34,9.39 Z M 248,0 C 249.55,1.27 251.91,1.85 251.96,4.45 252.02,7.73 252.43,11.06 251.96,14.27 251.52,17.21 249.42,18.38 246.57,18.33 244.36,18.3 242.27,16.79 241.93,14.05 241.55,10.96 241.79,7.77 241.99,4.64 242.14,2.2 243.94,0.93 246,0 L 248,0 Z M 248,0" />
        <path id="canvas4-bezier5" stroke="none" fill="rgb(200, 212, 230)" d="M 193.25,9.73 C 193.19,9.73 193.13,9.72 193.08,9.72 193.08,8.23 193.31,6.69 192.99,5.27 192.8,4.46 191.72,3.32 191.01,3.3 190.3,3.27 188.97,4.4 188.91,5.11 188.67,7.98 188.68,10.88 188.93,13.75 188.99,14.43 190.3,15.41 191.11,15.49 191.69,15.55 192.74,14.44 192.97,13.67 193.33,12.44 193.18,11.05 193.25,9.73 Z M 192,0 C 196.7,3.23 198.51,9.79 195.84,15.02 194.77,17.11 193.07,18.73 190.18,18.39 187.69,18.09 186.48,16.26 186.3,14.5 185.93,10.95 186.13,7.31 186.46,3.74 186.64,1.82 187.89,0.41 190.23,0.62 190.63,0.66 191.07,0.22 191.5,0 L 192,0 Z M 192,0" />
        <path id="canvas4-bezier6" stroke="none" fill="rgb(200, 212, 230)" d="M 220,-0 C 223.8,2.25 224.77,4.6 224.11,10.19 223.44,10.22 222.73,10.25 221.82,10.29 221.76,9.42 221.69,8.7 221.67,7.99 221.54,4.57 220.58,2.68 218.86,3.02 216.03,3.58 216.9,6.06 216.83,7.89 216.69,11.67 216.56,12.09 214.01,13.9 212.06,7.49 213.27,3.26 218,-0 L 220,-0 Z M 220,-0" />
        <path id="canvas4-bezier7" stroke="none" fill="rgb(200, 212, 230)" d="M 236,-0 L 236,18.14 C 234.8,18.21 233.93,18.25 232.72,18.32 L 232.72,5.32 C 231.07,6.01 229.81,6.54 228.48,7.1 227.76,5.54 228.5,4.96 229.62,4.09 230.98,3.03 231.89,1.39 233,-0 L 236,-0 Z M 236,-0" />
        <path id="canvas4-bezier8" stroke="none" fill="rgb(200, 212, 230)" d="M 208,-0 L 208,18.15 C 206.76,18.22 205.89,18.26 204.69,18.33 L 204.69,5.02 C 203.13,5.92 202.03,6.55 200.94,7.18 200.74,7.06 200.54,6.95 200.34,6.83 200.92,5.9 201.43,4.91 202.09,4.05 203.17,2.66 204.36,1.35 205.5,-0 L 208,-0 Z M 208,-0" />
        <path id="canvas4-bezier9" stroke="none" fill="rgb(16, 67, 145)" d="M 251.79,203.02 C 245.58,203.02 239.71,203.02 233.83,203.01 220.51,203 207.18,202.94 193.86,202.98 186.39,203.01 178.91,203.29 171.43,203.24 170.02,203.23 168.37,202.53 167.26,201.62 164.46,199.35 161.79,196.89 159.29,194.3 156.61,191.51 154.12,188.52 151.65,185.53 149.24,182.61 146.83,179.67 144.66,176.57 141.99,172.76 139.33,168.9 137.1,164.83 133.22,157.74 129.65,150.48 125.97,143.27 122.58,136.64 119.25,129.98 115.84,123.37 114.64,121.05 113.27,118.82 111.65,115.97 118.06,116.95 123.72,117.75 129.36,118.7 135.5,119.73 141.62,120.91 147.75,121.98 156.27,123.47 164.79,124.93 173.31,126.36 184.79,128.29 196.26,130.24 207.76,132.05 209.7,132.36 210.67,133.18 211.63,134.91 214.84,140.71 218.37,146.33 221.76,152.03 226.87,160.65 231.96,169.28 237.07,177.9 241.5,185.37 245.95,192.83 250.37,200.3 250.83,201.07 251.2,201.89 251.79,203.02 Z M 251.79,203.02" />
        <path id="canvas4-bezier10" stroke="none" fill="rgb(16, 67, 145)" d="M 303.47,168.44 C 299.83,170.92 296.26,173.35 292.35,176.01 298.71,179.89 304.87,183.64 311.01,187.39 307.73,194.31 302.43,199.03 296.06,202.64 295.2,203.13 293.96,203.09 292.9,203.09 281.75,203.11 270.6,203.07 259.45,203.09 257.85,203.1 256.71,202.81 255.82,201.2 252.68,195.55 249.4,189.98 246.09,184.44 243.5,180.1 240.78,175.83 238.12,171.53 236.9,169.57 235.75,167.56 234.46,165.65 233.59,164.36 233.95,163.73 235.3,163.27 240.57,161.48 243.82,157.51 246.3,152.8 247.9,149.77 247.46,149.09 244.36,147.85 240.5,146.29 236.73,144.5 232.51,142.63 235,140.74 236.93,139.34 238.79,137.86 242.79,134.67 246.81,131.49 250.72,128.2 252.41,126.77 252.23,125.37 250.3,124.24 248.45,123.15 246.47,122.27 244.54,121.31 243.38,120.72 242.21,120.15 240.58,119.33 247.17,114.59 252.16,109.07 255.8,102.34 253.64,99.86 251.54,97.46 249.17,94.76 255.35,88.46 261.84,82.08 264.43,72.65 267.35,82.41 274.12,89.22 281.38,96.26 279.4,97.82 277.72,99.55 275.7,100.63 273.47,101.81 272.73,103.1 274.33,105.05 277.73,109.21 281.22,113.29 285.75,116.36 287.35,117.45 288.66,118.99 290.28,120.49 286,122.23 281.9,123.91 277.58,125.67 280.17,129.48 283.8,131.87 287.4,134.34 290.92,136.77 294.32,139.39 297.77,141.92 L 297.74,142.87 C 293.24,144.69 288.78,146.62 284.23,148.28 281.75,149.18 281.41,149.66 282.74,151.95 285.68,157.03 289.68,160.97 294.96,163.64 297.65,165 300.22,166.6 303.47,168.44 Z M 303.47,168.44" />
        <path id="canvas4-bezier11" stroke="none" fill="rgb(16, 67, 145)" d="M 316.57,200.68 C 322.73,196.93 328.89,193.17 335.23,189.31 331.23,186.57 327.72,184.16 324.08,181.67 327.74,179.66 331.13,177.83 334.49,175.95 339.4,173.2 342.71,168.93 345.52,164.21 346.55,162.49 345.08,162.38 344,161.95 339.25,160.06 334.52,158.12 329.79,156.21 329.73,155.92 329.67,155.62 329.61,155.33 333.47,152.55 337.38,149.85 341.17,146.97 343.8,144.96 346.32,142.8 348.76,140.56 349.97,139.44 350.11,138.4 347.97,137.83 345.09,137.06 342.29,135.97 339.47,134.96 338.8,134.72 338.21,134.26 337.2,133.69 339.95,131.36 342.61,129.41 344.89,127.1 347.88,124.06 350.65,120.81 353.34,117.5 354.36,116.24 354.07,114.95 352.36,114.07 350.76,113.24 349.27,112.15 347.83,111.05 346.63,110.14 346.49,109.08 347.69,107.91 350.24,105.43 352.74,102.9 355.23,100.36 355.75,99.84 356.26,99.27 356.61,98.63 358.8,94.68 360.94,90.69 363.15,86.62 363.9,87.97 364.86,89.24 365.34,90.67 367.63,97.62 372.91,102.3 377.81,107.25 379.59,109.03 379.44,110.33 377.58,111.69 376.51,112.47 375.44,113.35 374.24,113.83 371.98,114.72 371.66,116.19 372.98,117.89 375.19,120.75 377.48,123.58 380.04,126.12 382.37,128.44 385.12,130.35 387.66,132.48 388.01,132.77 388.2,133.25 388.79,134.14 384.6,135.65 380.66,137.06 376.42,138.58 376.64,139.14 376.72,139.99 377.19,140.39 379.8,142.65 382.45,144.88 385.2,146.97 388.93,149.81 392.76,152.52 397.22,155.77 392.05,157.95 387.72,159.93 383.28,161.6 380.53,162.64 380.22,163.08 381.6,165.6 384.79,171.47 389.81,175.24 395.64,178.15 397.71,179.18 399.72,180.3 402.21,181.62 398.57,184.11 395.07,186.5 391,189.28 397.31,193.16 403.49,196.96 409.52,200.67 408.8,202.93 407.61,203.37 405.89,203.36 377.2,203.25 348.5,203.21 319.8,203.08 318.7,203.07 317.61,202.28 316.51,201.86 316.53,201.47 316.55,201.07 316.57,200.68 Z M 316.57,200.68" />
        <path id="canvas4-bezier12" stroke="none" fill="rgb(16, 67, 145)" d="M 197.19,126.01 C 198.27,124.22 199.01,122.83 199.89,121.55 201.18,119.66 200.97,118.79 198.83,118.03 195.93,117 192.94,116.18 190.15,114.92 187,113.51 184.03,111.72 180.69,109.94 181.38,109.09 181.78,108.35 182.38,107.88 187.01,104.29 191.62,100.69 196.34,97.24 200.12,94.48 203.32,91.22 206.08,87.51 200.72,85.28 195.64,83.16 189.9,80.78 193.46,77.46 196.59,74.69 199.55,71.74 202.34,68.96 204.99,66.02 207.62,63.08 208.55,62.03 209.22,60.75 210.05,59.61 211.88,57.09 211.27,55.99 208.63,54.57 206.22,53.28 204.2,51.2 202.2,49.27 201.88,48.95 202.3,47.38 202.82,46.77 205.62,43.5 208.49,40.29 211.46,37.19 215.25,33.25 217.4,28.41 219.44,23.48 220.19,21.66 221.15,19.93 222.2,17.77 223.85,21.26 225.59,24.34 226.78,27.61 228.54,32.46 231.93,36.05 235.28,39.73 237.51,42.18 239.79,44.59 241.93,47.12 242.35,47.62 242.6,48.97 242.29,49.26 240.26,51.16 238.26,53.23 235.86,54.57 233.41,55.93 232.51,57.33 234.24,59.65 237.69,64.28 240.97,69.03 245.74,72.57 248.76,74.81 251.29,77.72 254.46,80.72 249.03,83.02 243.98,85.17 238.34,87.56 242.09,92.45 245.98,97.51 249.93,102.65 247.35,107.73 243.51,112.08 238.64,115.54 237.82,116.12 237.07,116.78 236.33,117.45 233.92,119.64 234.07,120.64 237.02,122.18 239.88,123.67 242.73,125.18 245.65,126.71 241.3,131.55 235.89,134.98 230.53,138.48 230.18,138.71 229.78,138.87 229.45,139.11 226.01,141.71 226.31,143.94 230.24,145.91 234.08,147.84 237.84,149.93 241.69,151.98 240.06,156.44 235.72,158.03 231.65,160.5 228.41,154.92 225.25,149.31 221.94,143.8 219.09,139.05 216.15,134.35 213.06,129.75 212.48,128.87 211.12,128.22 210.01,128.02 205.94,127.25 201.83,126.71 197.19,126.01 Z M 197.19,126.01" />
        <path id="canvas4-bezier13" stroke="none" fill="rgb(16, 67, 145)" d="M 159.68,203.02 L 107.81,203.02 107.81,122.09 C 109.97,126.36 111.82,130.09 113.73,133.79 115.96,138.11 118.26,142.4 120.49,146.72 121.28,148.27 121.94,149.89 122.7,151.46 124.8,155.78 126.76,160.17 129.1,164.35 130.82,167.43 133.09,170.21 135.07,173.14 137.66,176.99 140.09,180.95 142.82,184.7 145,187.69 147.41,190.55 149.93,193.26 153,196.57 156.3,199.65 159.68,203.02 Z M 159.68,203.02" />
        <path id="canvas4-bezier14" stroke="none" fill="rgb(16, 67, 145)" d="M 101.2,202.77 L 51.03,202.77 C 54.28,199.49 57.4,196.47 60.38,193.31 62.59,190.97 64.83,188.6 66.65,185.96 70.83,179.89 74.96,173.77 78.71,167.44 82.39,161.26 85.73,154.87 88.94,148.43 92.44,141.4 95.62,134.21 98.96,127.1 99.56,125.83 100.27,124.61 101.2,122.85 L 101.2,202.77 Z M 101.2,202.77" />
        <path id="canvas4-bezier15" stroke="none" fill="rgb(16, 67, 145)" d="M 338.47,279.89 C 345.75,270.57 352.74,261.62 359.78,252.71 359.95,252.49 360.71,252.74 361.31,252.78 L 361.31,295.17 351.23,295.17 351.23,280.35 C 351.01,280.28 350.78,280.2 350.55,280.13 346.66,285.07 342.76,290.02 338.61,295.3 334.44,290.06 330.51,285.13 326.16,279.67 L 326.16,295.17 316.22,295.17 316.22,252.65 C 318.71,252.79 319.52,254.93 320.67,256.43 326.57,264.08 332.36,271.81 338.47,279.89 Z M 338.47,279.89" />
        <path id="canvas4-bezier16" stroke="none" fill="rgb(16, 67, 145)" d="M 108.37,285.15 C 115.28,285.72 120.72,279.07 120.71,274.06 120.69,268.11 114.94,263.12 108.41,262.76 102.24,262.43 95.99,268.46 96.23,274.03 96.52,280.5 101.32,285.15 108.37,285.15 Z M 107.93,295.38 C 100.24,295.88 94.01,292.46 89.49,286.54 85.54,281.36 85.13,275.1 86.36,268.66 87.88,260.73 97.38,252.63 106.29,252.56 110.49,252.54 114.65,252.6 118.46,254.58 122.94,256.91 126.53,260.14 128.92,264.75 133.09,272.8 131.83,280.42 126.62,287.17 122.11,293.02 115.68,295.92 107.93,295.38 Z M 107.93,295.38" />
        <path id="canvas4-bezier17" stroke="none" fill="rgb(16, 67, 145)" d="M 146.42,285.05 C 152.32,285.22 157.26,284.37 160.83,279.64 163.25,276.43 163.14,270.25 160.66,267.48 157.23,263.64 152.85,262.69 148.03,262.97 147.47,263 146.5,263.81 146.49,264.26 146.39,271.07 146.42,277.88 146.42,285.05 Z M 135.36,252.77 C 144.11,253.09 152.62,251.77 160.86,254.76 169.24,257.79 174.12,266.69 173.25,276.66 172.36,286.89 165.54,292.88 155.91,294.34 149.7,295.28 143.31,295.03 137,295.35 135.09,295.44 135.37,294.12 135.37,292.99 135.36,285.82 135.36,278.66 135.36,271.5 135.36,265.42 135.36,259.35 135.36,252.77 Z M 135.36,252.77" />
        <path id="canvas4-bezier18" stroke="none" fill="rgb(16, 67, 145)" d="M 206.75,252.79 L 206.75,262.89 C 201.59,262.89 196.54,262.89 191.49,262.89 188.35,262.89 186.78,265.33 188.23,268.17 188.48,268.67 189.58,268.96 190.3,268.97 194.2,269.05 198.11,269.01 202.24,269.01 L 202.24,279.05 C 198.37,279.05 194.55,279.22 190.76,278.99 188.14,278.84 188.03,280.15 187.99,282.15 187.94,284.28 188.34,285.29 190.83,285.19 196.05,284.99 201.29,285.13 206.7,285.13 L 206.7,295.17 177.71,295.17 177.71,252.79 206.75,252.79 Z M 206.75,252.79" />
        <path id="canvas4-bezier19" stroke="none" fill="rgb(16, 67, 145)" d="M 377.51,268.02 C 377.64,274.25 376.48,273.27 382.94,273.42 383.52,273.43 384.11,273.37 384.68,273.3 387.75,272.91 389.75,270.85 389.75,268.12 389.74,265.25 387.65,263.22 384.42,262.95 383.84,262.9 383.26,262.92 382.67,262.91 377.51,262.88 377.51,262.89 377.51,268.02 Z M 367.22,295.34 C 367.15,294.46 367.07,293.9 367.07,293.33 367.06,280.69 367.11,268.04 367.02,255.4 367.01,253.28 367.7,252.67 369.73,252.77 376.28,253.1 382.88,252.91 389.36,253.68 393.94,254.23 396.83,257.6 399.12,261.72 402.2,267.27 400.96,272.24 397.79,276.88 394.95,281.02 390.62,283.16 385.51,283.37 383.43,283.46 381.35,283.49 379.27,283.41 377.76,283.35 377.19,283.9 377.24,285.42 377.33,288 377.2,290.58 377.29,293.16 377.33,294.7 376.94,295.46 375.21,295.37 372.64,295.25 370.07,295.34 367.22,295.34 Z M 367.22,295.34" />
        <path id="canvas4-bezier20" stroke="none" fill="rgb(16, 67, 145)" d="M 265.41,289.54 C 262.51,292.97 257.57,294.86 252.07,295.36 246.07,295.9 240.15,295.23 235.02,291.87 229.32,288.15 226.04,282.83 225.53,275.84 224.38,260.2 238.17,250.73 252.59,252.77 257.9,253.52 262.3,255.83 266.13,259.4 263.74,261.8 261.31,264.23 258.75,266.79 254.94,262.59 249.95,262.19 244.72,263.43 240.85,264.34 238,266.87 236.63,270.57 235.14,274.64 235.99,278.75 239.05,281.68 243.82,286.26 251.81,286.31 256.95,283.12 257.58,282.72 258.16,282.24 259.59,281.01 261.51,283.81 263.42,286.62 265.41,289.54 Z M 265.41,289.54" />
        <path id="canvas4-bezier21" stroke="none" fill="rgb(16, 67, 145)" d="M 79.63,281.03 C 81.46,283.83 83.28,286.63 85.28,289.69 83.51,291.84 79.98,293.84 75.86,294.72 68.54,296.29 61.28,295.9 54.88,291.8 49.27,288.2 46.03,282.85 45.5,275.93 44.32,260.2 58.16,250.75 72.52,252.76 77.84,253.51 82.24,255.81 86.02,259.31 83.61,261.74 81.19,264.18 78.65,266.74 74.99,262.65 70.1,262.26 64.91,263.36 56.48,265.16 52.96,275.35 58.91,281.53 62.7,285.47 67.9,286.04 73.11,284.7 75.07,284.19 76.86,283.04 78.72,282.18 79.03,281.8 79.33,281.42 79.63,281.03 Z M 79.63,281.03" />
        <path id="canvas4-largeA" stroke="none" fill="rgb(16, 67, 145)" d="M 287.07,280.3 L 292.66,280.3 C 291.73,278.24 290.94,276.5 289.84,274.05 288.76,276.49 287.97,278.28 287.07,280.3 Z M 311.82,295.33 C 308,295.33 304.74,295.62 301.59,295.17 300.46,295.01 299.09,293.21 298.7,291.9 297.93,289.27 296.45,288.66 293.95,288.82 290.71,289.03 287.45,288.94 284.2,288.84 282.69,288.8 281.96,289.43 281.44,290.78 279.7,295.3 279.58,295.34 274.78,295.34 272.65,295.34 270.52,295.34 268.13,295.34 270.35,290.64 272.38,286.3 274.45,281.98 277.68,275.24 280.94,268.52 284.19,261.79 285.37,259.34 286.5,256.85 287.81,254.46 288.18,253.79 289.12,252.95 289.73,252.99 290.49,253.05 291.51,253.8 291.86,254.52 294.22,259.28 296.41,264.12 298.7,268.92 302.24,276.33 305.81,283.73 309.4,291.12 310.01,292.37 310.78,293.54 311.82,295.33 Z M 311.82,295.33" />
        <path id="canvas4-bezier23" stroke="none" fill="rgb(16, 67, 145)" d="M 127.23,222.33 C 125.68,224.19 124.3,225.46 121.62,223.91 119.35,222.59 116.39,223.63 114.62,225.65 113.14,227.33 112.89,230.04 114.06,231.67 115.65,233.87 119.69,234.82 122.26,233.54 122.89,233.23 123.43,232.72 124.43,232.01 122.04,230.97 117.25,233.15 119.22,227.68 L 130,227.68 C 130.94,230.94 128.38,236.19 125.13,237.51 118.88,240.05 112.94,238.99 109.33,232.93 107.13,229.25 109.02,223.38 113.64,220.21 117.08,217.86 124.95,218.33 127.23,222.33 Z M 127.23,222.33" />
        <path id="canvas4-bezier24" stroke="none" fill="rgb(16, 67, 145)" d="M 136.99,226.38 C 136.59,227.96 137.41,228.67 139.27,228.54 140.97,228.42 142.56,228.12 142.57,226.04 142.57,223.55 140.6,223.61 138.84,223.46 136.7,223.26 136.97,224.75 136.99,226.38 Z M 136.93,232 L 136.93,238.37 132.67,238.37 132.67,219.21 C 135.93,219.21 139.18,218.87 142.33,219.31 144.9,219.67 146.86,221.56 147.31,224.29 147.81,227.34 147.01,230.04 144.2,231.81 145.52,233.88 146.83,235.94 148.16,238.04 144.36,239.31 142.98,238.81 140.94,235.86 139.93,234.41 138.7,233.1 137.56,231.73 137.35,231.82 137.14,231.91 136.93,232 Z M 136.93,232" />
        <path id="canvas4-bezier25" stroke="none" fill="rgb(16, 67, 145)" d="M 302.63,219.04 L 316.12,219.04 316.12,223.43 C 313.87,223.43 311.65,223.46 309.45,223.42 308.19,223.39 307.38,223.62 307.4,225.17 307.42,226.67 308.32,226.7 309.39,226.69 310.79,226.67 312.19,226.68 313.75,226.68 L 313.75,231.34 C 312.13,231.34 310.56,231.22 309.02,231.41 308.45,231.48 307.97,232.28 307.44,232.74 307.98,233.2 308.49,234 309.06,234.04 311.36,234.19 313.67,234.1 315.91,234.1 316.85,238.5 316.71,238.69 312.66,238.69 309.91,238.69 307.15,238.78 304.41,238.62 303.79,238.58 302.71,237.72 302.7,237.22 302.59,231.24 302.63,225.27 302.63,219.04 Z M 302.63,219.04" />
        <path id="canvas4-bezier26" stroke="none" fill="rgb(16, 67, 145)" d="M 172.17,218.52 C 176.31,222.22 180.03,225.54 184.38,229.42 184.38,226.35 184.44,223.93 184.36,221.51 184.29,219.75 184.57,218.8 186.76,218.81 189,218.82 189.1,219.9 189.09,221.59 189.03,227.14 189.07,232.69 189.07,238.25 188.86,238.39 188.66,238.54 188.46,238.69 184.7,235.36 180.94,232.03 176.61,228.2 176.61,230.79 176.61,232.81 176.61,234.82 176.61,238.94 176.61,238.94 172.17,238.33 L 172.17,218.52 Z M 172.17,218.52" />
        <path id="canvas4-bezier27" stroke="none" fill="rgb(16, 67, 145)" d="M 216.24,238.7 L 216.24,219.1 229.13,219.1 229.13,223.43 C 227.03,223.43 224.91,223.46 222.79,223.42 221.64,223.4 220.9,223.62 220.9,225.04 220.89,226.44 221.58,226.73 222.76,226.69 224.23,226.65 225.71,226.68 227.31,226.68 L 227.31,231.33 C 225.93,231.33 224.56,231.31 223.18,231.34 222.16,231.37 220.68,231.04 221.03,232.78 221.14,233.34 222.34,233.98 223.09,234.05 225.05,234.22 227.03,234.11 228.94,234.11 229.87,238.5 229.73,238.69 225.69,238.7 222.62,238.7 219.56,238.7 216.24,238.7 Z M 216.24,238.7" />
        <path id="canvas4-bezier28" stroke="none" fill="rgb(16, 67, 145)" d="M 251.84,224.36 C 250.28,224.74 248.84,225.09 247.41,225.44 247.07,224.9 246.83,224.15 246.33,223.88 245.76,223.57 244.87,223.46 244.27,223.68 243.81,223.85 243.26,224.71 243.33,225.18 243.42,225.8 243.96,226.6 244.52,226.84 246.11,227.52 247.81,227.94 249.46,228.48 251.55,229.16 252.2,230.97 252.23,232.8 252.26,234.7 251.68,236.5 249.66,237.56 246.61,239.15 243.6,239.5 240.75,237.41 239.54,236.53 238.73,235.08 237.41,233.49 240.09,232.95 241.89,231.65 243.79,233.69 244.22,234.16 245.62,233.84 246.54,233.67 246.83,233.62 247.27,232.62 247.19,232.55 246.56,231.97 245.86,231.44 245.11,231.03 243.3,230.06 241.28,229.39 239.66,228.18 236.9,226.11 238.3,221.13 242.01,219.42 245.56,217.78 250.76,219.22 251.84,224.36 Z M 251.84,224.36" />
        <path id="canvas4-bezier31" stroke="none" fill="rgb(16, 67, 145)" d="M 203.81,223.58 C 201.75,223.48 200.35,223.42 198.77,223.35 L 198.77,219.19 213.71,219.19 213.71,223.32 C 212.21,223.4 210.75,223.49 208.98,223.59 L 208.98,238.39 203.81,238.39 203.81,223.58 Z M 203.81,223.58" />
        <path id="canvas4-bezier32" stroke="none" fill="rgb(16, 67, 145)" d="M 295.54,238.4 L 290.64,238.4 C 290.64,234.46 290.65,230.65 290.64,226.84 290.63,223.54 290.62,223.54 287.25,223.45 286.84,223.44 286.42,223.38 285.79,223.32 L 285.79,219.21 300.68,219.21 300.68,223.06 C 300.49,223.18 300.36,223.33 300.22,223.35 295.79,223.75 295.79,223.74 295.81,228.28 295.83,231.45 295.82,234.61 295.81,237.78 295.81,237.92 295.69,238.07 295.54,238.4 Z M 295.54,238.4" />
        <path id="canvas4-bezier33" stroke="none" fill="rgb(16, 67, 145)" d="M 253.63,223.17 L 253.63,218.98 261.16,218.98 268.59,218.98 268.59,223.35 C 266.98,223.42 265.5,223.49 263.78,223.57 L 263.78,238.41 258.58,238.41 C 258.58,234.5 258.59,230.7 258.58,226.89 258.57,223.25 258.86,223.39 255.28,223.44 254.73,223.45 254.18,223.27 253.63,223.17 Z M 253.63,223.17" />
        <path id="canvas4-bezier34" stroke="none" fill="rgb(200, 212, 230)" d="M 54.89,166.49 C 54.69,165.08 54.57,163.34 54.15,161.67 54.02,161.14 53.1,160.47 52.56,160.48 52,160.5 51.02,161.25 51,161.72 50.85,164.92 50.81,168.14 50.96,171.35 50.98,171.88 52.08,172.78 52.65,172.76 53.25,172.73 54.15,171.9 54.32,171.26 54.7,169.83 54.7,168.31 54.89,166.49 Z M 58.68,166.48 C 58.05,168.79 57.57,171.12 56.77,173.33 55.69,176.33 50.33,176.53 48.61,173.65 46.66,170.41 46.54,162.22 48.69,159.11 50.33,156.75 55.79,157.23 56.87,159.96 57.67,161.99 58.06,164.19 58.68,166.48 Z M 58.68,166.48" />
        <path id="canvas4-bezier35" stroke="none" fill="rgb(200, 212, 230)" d="M 165.12,35.7 C 165.31,37.16 165.35,38.75 165.77,40.25 165.93,40.84 166.92,41.6 167.5,41.57 168.08,41.55 169.07,40.66 169.1,40.11 169.26,37.07 169.27,34.02 169.11,30.99 169.08,30.41 168.05,29.38 167.6,29.44 166.89,29.53 165.9,30.27 165.71,30.93 165.3,32.42 165.3,34.02 165.12,35.7 Z M 173.15,34.88 C 172.79,37.35 172.67,39.09 172.27,40.75 171.68,43.18 170.12,44.55 167.49,44.57 164.89,44.6 163.15,43.39 162.56,40.92 161.52,36.6 161.13,32.25 163.64,28.24 165.23,25.68 170.32,25.9 171.48,28.67 172.38,30.82 172.72,33.21 173.15,34.88 Z M 173.15,34.88" />
        <path id="canvas4-bezier36" stroke="none" fill="rgb(200, 212, 230)" d="M 127.78,35.51 C 127.71,34.1 127.89,32.62 127.49,31.31 127.24,30.5 126.15,29.46 125.4,29.44 124.73,29.42 123.49,30.6 123.43,31.33 123.19,34.11 123.18,36.93 123.41,39.71 123.47,40.43 124.73,41.58 125.42,41.57 126.16,41.55 127.26,40.51 127.5,39.7 127.89,38.4 127.71,36.92 127.78,35.51 Z M 119.2,35.84 C 119.79,33.68 120.21,31.94 120.74,30.24 121.43,28.01 122.66,26.6 125.31,26.49 128.23,26.36 129.86,28.23 130.48,30.28 131.78,34.58 132.21,39.04 129,42.98 127.11,45.3 122.78,45.08 121.51,42.36 120.52,40.23 119.92,37.93 119.2,35.84 Z M 119.2,35.84" />
        <path id="canvas4-bezier37" stroke="none" fill="rgb(200, 212, 230)" d="M 320.31,166.4 C 320.05,164.9 319.97,163.38 319.47,162.01 319.23,161.33 318.28,160.59 317.58,160.51 317.1,160.46 316.04,161.46 316.01,162.04 315.85,165.07 315.83,168.13 316.01,171.16 316.05,171.76 317.13,172.62 317.83,172.74 318.31,172.82 319.3,171.91 319.48,171.27 319.93,169.7 320.06,168.03 320.31,166.4 Z M 311.89,166.08 C 312.32,164.41 312.74,162.25 313.42,160.17 314.09,158.14 315.8,157.7 317.78,157.63 319.85,157.56 321.29,158.25 322.13,160.18 323.8,164 324.02,168.07 322.55,171.76 321.85,173.52 319.27,175.04 317.25,175.61 315.18,176.2 313.28,173.91 312.66,171.04 312.35,169.6 312.2,168.13 311.89,166.08 Z M 311.89,166.08" />
        <path id="canvas4-bezier38" stroke="none" fill="rgb(200, 212, 230)" d="M 349.43,63.05 C 349.24,60.97 349.2,59.29 348.86,57.68 348.75,57.13 347.92,56.41 347.36,56.36 346.82,56.3 345.84,56.88 345.68,57.38 344.56,60.85 344.21,64.37 345.78,67.82 346.02,68.34 346.73,69.07 347.11,69.01 347.69,68.91 348.51,68.3 348.65,67.75 349.08,66.09 349.23,64.35 349.43,63.05 Z M 353.12,62.55 C 352.7,64.51 352.23,66.33 351.92,68.18 351.53,70.41 349.97,71.14 348.05,71.31 343.83,71.69 342.17,70.25 341.76,65.32 341.55,62.72 341.84,60.03 342.26,57.44 342.66,54.98 344.7,53.88 346.96,53.84 348.92,53.81 351.07,54.25 351.78,56.56 352.38,58.51 352.68,60.55 353.12,62.55 Z M 353.12,62.55" />
        <path id="canvas4-bezier39" stroke="none" fill="rgb(200, 212, 230)" d="M 309.16,35.57 C 309.02,34.24 309.06,32.87 308.67,31.63 308.39,30.76 307.52,30.08 306.91,29.32 306.12,29.97 304.71,30.56 304.64,31.27 304.4,34.14 304.42,37.05 304.7,39.91 304.77,40.58 306.18,41.42 307.07,41.56 307.5,41.63 308.41,40.33 308.65,39.51 309.02,38.26 309.01,36.9 309.16,35.57 Z M 312.65,34.72 C 312.29,37.24 312.22,39 311.77,40.66 311.04,43.35 309.39,44.48 306.78,44.55 304.23,44.62 302.73,43.29 302.03,41 300.73,36.74 300.83,32.55 302.76,28.43 303.67,26.49 305.42,26.39 306.98,26.64 308.37,26.86 310.27,27.53 310.83,28.6 311.91,30.63 312.2,33.08 312.65,34.72 Z M 312.65,34.72" />
        <path id="canvas4-bezier40" stroke="none" fill="rgb(200, 212, 230)" d="M 141.91,35.45 C 141.8,33.82 141.94,32.49 141.53,31.37 141.23,30.54 140.22,29.48 139.49,29.45 138.81,29.42 137.52,30.57 137.46,31.28 137.22,34.07 137.22,36.9 137.45,39.69 137.51,40.42 138.9,41.7 139.4,41.58 140.26,41.36 141.28,40.37 141.55,39.5 141.98,38.11 141.84,36.55 141.91,35.45 Z M 133.07,35.13 C 133.88,32.95 134.35,30.57 135.56,28.64 137.62,25.36 141.8,25.85 143.66,29.2 146.29,33.9 145.54,38.4 143.18,42.86 141.99,45.1 137.6,45.14 135.78,43 133.94,40.82 133.66,39.84 133.07,35.13 Z M 133.07,35.13" />
        <path id="canvas4-bezier41" stroke="none" fill="rgb(200, 212, 230)" d="M 254.38,35.24 C 254.27,33.99 254.27,32.39 253.91,30.88 253.76,30.26 252.84,29.45 252.24,29.42 251.65,29.4 250.68,30.14 250.48,30.75 249.41,33.88 249.22,37.09 250.46,40.22 250.71,40.84 251.68,41.69 252.16,41.6 252.86,41.46 253.79,40.67 253.96,39.99 254.32,38.57 254.25,37.04 254.38,35.24 Z M 246.37,35.46 C 246.75,33.62 247.1,31.77 247.54,29.94 248.09,27.63 249.52,26.49 251.98,26.52 254.51,26.55 256.27,27.51 256.99,30.02 258.2,34.2 258.28,38.31 256.35,42.36 255.48,44.21 253.84,44.38 252.22,44.5 250.77,44.61 249.87,43.85 248.9,42.53 247.28,40.35 246.24,38.24 246.37,35.46 Z M 246.37,35.46" />
        <path id="canvas4-bezier42" stroke="none" fill="rgb(200, 212, 230)" d="M 47.67,140.3 C 47.49,138.9 47.5,137.35 47.04,135.96 46.78,135.21 45.76,134.36 45,134.26 44.42,134.19 43.17,135.21 43.13,135.8 42.96,138.94 42.98,142.09 43.18,145.23 43.22,145.76 44.54,146.7 45.13,146.6 45.88,146.47 46.83,145.59 47.07,144.84 47.5,143.44 47.48,141.9 47.67,140.3 Z M 51.37,140.4 C 50.67,142.59 50.43,144.95 49.23,146.62 48.29,147.92 46.22,148.95 44.58,149.06 41.99,149.24 40.36,147.06 39.76,144.86 38.73,141.08 38.56,137.09 41.02,133.73 41.85,132.58 43.65,131.54 45.01,131.53 46.41,131.51 48.4,132.47 49.1,133.62 50.27,135.56 50.62,137.99 51.37,140.4 Z M 51.37,140.4" />
        <path id="canvas4-bezier43" stroke="none" fill="rgb(200, 212, 230)" d="M 263.87,35.58 C 263.82,35.58 263.77,35.58 263.72,35.59 263.79,37 263.6,38.49 264.02,39.79 264.29,40.59 265.42,41.43 266.29,41.59 266.8,41.67 268.03,40.48 268.08,39.8 268.3,37 268.33,34.17 268.1,31.38 268.04,30.64 266.83,30 266.14,29.32 265.39,30.08 264.25,30.72 263.97,31.62 263.59,32.84 263.87,34.25 263.87,35.58 Z M 272.04,35.4 C 271.78,37.25 271.68,39.08 271.24,40.82 270.65,43.16 268.91,44.33 266.54,44.51 264.11,44.7 262.44,43.71 261.63,41.31 260.29,37.33 260.36,33.4 261.73,29.44 262.6,26.93 264.48,26.4 266.83,26.57 269.1,26.74 270.55,28.05 271.16,30.07 271.68,31.78 271.77,33.62 272.04,35.4 Z M 272.04,35.4" />
        <path id="canvas4-bezier44" stroke="none" fill="rgb(200, 212, 230)" d="M 416.74,167.06 C 416.66,165.43 416.81,163.87 416.42,162.47 416.19,161.64 415.12,160.56 414.37,160.51 413.69,160.47 412.37,161.63 412.31,162.33 412.08,165.2 412.1,168.1 412.32,170.97 412.38,171.66 413.67,172.87 414.18,172.76 415.03,172.59 416.08,171.7 416.38,170.86 416.82,169.67 416.66,168.25 416.74,167.06 Z M 408.48,166.7 C 408.69,165.07 408.7,163.39 409.13,161.83 410.07,158.39 412.28,156.9 415.61,157.79 416.77,158.1 417.97,159.47 418.52,160.65 420.58,165.12 420.32,169.65 417.78,173.88 416.27,176.41 413.29,176.22 411.06,174.34 408.49,172.17 408.62,169.52 408.48,166.7 Z M 408.48,166.7" />
        <path id="canvas4-bezier45" stroke="none" fill="rgb(200, 212, 230)" d="M 52.9,115.01 C 52.81,113.97 52.92,112.34 52.49,110.86 52.21,109.93 51.13,109.24 50.41,108.45 49.72,109.29 48.51,110.08 48.43,110.97 48.18,113.76 48.18,116.6 48.46,119.38 48.54,120.17 49.9,120.83 50.67,121.56 51.32,120.79 52.26,120.13 52.55,119.25 52.93,118.1 52.78,116.79 52.9,115.01 Z M 56.4,114.19 C 56.18,117.96 56.23,120.86 53.55,122.88 50.65,125.07 47.52,124.25 45.93,120.91 43.9,116.61 44.4,112.42 46.37,108.34 47.24,106.53 48.97,105.94 50.99,106.16 53.16,106.39 54.73,107.53 55.41,109.51 56.02,111.27 56.2,113.18 56.4,114.19 Z M 56.4,114.19" />
        <path id="canvas4-bezier46" stroke="none" fill="rgb(200, 212, 230)" d="M 104.36,88.67 C 104.18,87.29 104.1,85.63 103.7,84.04 103.54,83.39 102.73,82.5 102.18,82.47 101.64,82.44 100.81,83.25 100.51,83.89 98.98,87.16 99.09,90.52 100.45,93.8 100.71,94.42 101.62,95.18 102.19,95.15 102.78,95.12 103.65,94.27 103.8,93.64 104.16,92.13 104.18,90.53 104.36,88.67 Z M 96.49,88.81 C 96.68,87.25 96.74,85.92 97.02,84.63 97.84,80.81 98.82,80.05 102.56,80.17 105.49,80.26 106.99,81.63 107.28,85.08 107.52,87.84 107.46,90.65 107.27,93.42 107.1,95.81 104.76,97.67 102.3,97.74 99.49,97.82 97.7,96.48 97.17,93.74 96.85,92.05 96.7,90.32 96.49,88.81 Z M 96.49,88.81" />
        <path id="canvas4-bezier47" stroke="none" fill="rgb(200, 212, 230)" d="M 313.16,114.42 C 313.31,116.59 313.25,118.21 313.61,119.71 313.78,120.42 314.71,121.23 315.44,121.41 315.98,121.55 317.32,120.76 317.34,120.35 317.46,116.85 317.42,113.33 317.25,109.83 317.23,109.34 316.19,108.48 315.72,108.54 315.05,108.62 314.1,109.3 313.93,109.91 313.46,111.55 313.33,113.29 313.16,114.42 Z M 321.53,115.15 C 321.54,118.36 321.21,121.27 318.18,123.22 315.61,124.87 312.55,124.07 311.24,121.26 309.22,116.94 309.57,112.59 311.41,108.38 312.32,106.3 314.56,105.57 316.47,106.3 318.12,106.92 319.79,108.35 320.66,109.87 321.49,111.33 321.28,113.37 321.53,115.15 Z M 321.53,115.15" />
        <path id="canvas4-bezier48" stroke="none" fill="rgb(200, 212, 230)" d="M 132.69,88.59 C 132.48,87.23 132.38,85.55 131.9,83.99 131.7,83.31 130.73,82.45 130.1,82.44 129.47,82.43 128.31,83.35 128.27,83.92 128.06,87.19 128,90.48 128.17,93.75 128.19,94.32 129.53,95.19 130.3,95.23 130.88,95.26 131.84,94.26 132.03,93.55 132.45,92.06 132.47,90.46 132.69,88.59 Z M 136.31,88.73 C 135.68,90.87 135.17,93.07 134.36,95.15 133.57,97.19 131.71,97.81 129.68,97.7 127.25,97.57 125.48,95.94 124.9,93.91 123.82,90.17 123.53,86.3 125.64,82.61 127,80.24 129.04,79.87 131.37,80.2 133.63,80.51 134.65,82.29 135.27,84.18 135.74,85.57 135.78,87.09 136.01,88.56 136.11,88.61 136.21,88.67 136.31,88.73 Z M 136.31,88.73" />
        <path id="canvas4-bezier49" stroke="none" fill="rgb(200, 212, 230)" d="M 76.19,115.17 C 76.23,115.18 76.28,115.18 76.32,115.18 76.32,115.6 76.3,116.01 76.33,116.42 76.46,118.33 75.79,120.69 78.32,121.47 79.85,121.94 81.06,119.77 81.05,116.41 81.05,114.37 80.86,112.29 80.38,110.31 80.21,109.57 79,109.08 78.26,108.48 77.71,109.15 76.87,109.76 76.69,110.52 76.33,112.02 76.33,113.62 76.19,115.17 Z M 84.11,114.59 C 83.78,116.87 83.7,118.71 83.22,120.44 82.63,122.63 80.06,124.45 78.25,124.3 76.27,124.14 73.33,121.75 73.27,119.73 73.18,116.31 73.42,112.87 73.67,109.45 73.84,107.01 75.94,106.57 77.77,106.22 79.86,105.82 81.94,106.31 82.73,108.52 83.47,110.58 83.72,112.81 84.11,114.59 Z M 84.11,114.59" />
        <path id="canvas4-bezier50" stroke="none" fill="rgb(200, 212, 230)" d="M 36.21,166.61 C 36.36,168.05 36.34,169.58 36.72,171 36.92,171.71 37.89,172.77 38.42,172.72 39.23,172.65 40.57,171.79 40.62,171.19 40.85,168.17 40.86,165.11 40.64,162.08 40.59,161.47 39.24,160.5 38.51,160.51 37.86,160.52 36.92,161.6 36.69,162.37 36.29,163.69 36.35,165.15 36.21,166.61 Z M 44.19,166.08 C 43.85,168.41 43.76,170.25 43.29,171.98 42.64,174.32 41.04,175.9 38.47,175.76 35.99,175.63 34.26,174.07 33.65,171.76 32.61,167.8 32.48,163.75 34.2,159.9 35.1,157.88 37.04,157.67 39,157.66 40.82,157.65 42.33,158.14 42.83,160.08 43.38,162.22 43.81,164.38 44.19,166.08 Z M 44.19,166.08" />
        <path id="canvas4-bezier51" stroke="none" fill="rgb(200, 212, 230)" d="M 341.79,88.63 C 341.69,87.54 341.75,85.83 341.3,84.27 341.08,83.48 339.98,82.6 339.17,82.47 338.68,82.4 337.51,83.66 337.46,84.38 337.25,87.34 337.22,90.34 337.44,93.3 337.49,94 338.8,95.16 339.45,95.11 340.2,95.05 341.21,93.99 341.47,93.17 341.86,91.94 341.69,90.54 341.79,88.63 Z M 333.49,88.97 C 333.71,86.24 333.44,83.43 335.75,81.36 338.71,78.71 342.72,79.91 344.08,83.61 345.32,87.01 345.53,90.28 344.32,93.73 343.48,96.14 341.6,97.85 339.31,97.77 336.8,97.68 334.62,95.86 334.14,93.36 333.85,91.91 333.7,90.43 333.49,88.97 Z M 333.49,88.97" />
        <path id="canvas4-bezier52" stroke="none" fill="rgb(200, 212, 230)" d="M 182.45,63.13 C 182.25,61.01 182.28,59.4 181.88,57.9 181.7,57.22 180.76,56.44 180.05,56.3 179.48,56.19 178.17,56.97 178.16,57.38 178.07,60.87 178.14,64.37 178.33,67.86 178.36,68.32 179.35,69.05 179.91,69.06 180.46,69.07 181.37,68.43 181.53,67.9 182.01,66.18 182.23,64.38 182.45,63.13 Z M 186.28,62.97 C 185.53,65.1 185,67.34 183.97,69.33 182.59,72 177.99,72.2 176.05,69.87 173.86,67.24 173.42,59.88 175.18,56.86 176.36,54.83 177.95,53.53 180.38,53.82 182.89,54.12 184.78,56.02 185.31,58.64 185.59,60 185.75,61.4 185.97,62.78 186.07,62.84 186.17,62.91 186.28,62.97 Z M 186.28,62.97" />
        <path id="canvas4-bezier53" stroke="none" fill="rgb(200, 212, 230)" d="M 410.98,140.65 C 410.61,138.89 410.44,137.24 409.87,135.74 409.61,135.08 408.49,134.28 407.86,134.36 407.25,134.43 406.33,135.52 406.3,136.21 406.15,139.15 406.22,142.12 406.38,145.07 406.41,145.62 407.21,146.54 407.69,146.56 408.35,146.59 409.43,146.08 409.65,145.53 410.28,143.96 410.57,142.26 410.98,140.65 Z M 402.47,140.43 C 402.69,138.8 402.76,137.14 403.17,135.56 403.93,132.63 405.59,131.31 408.1,131.35 410.91,131.4 412.43,132.35 412.95,135.6 413.45,138.72 413.42,142 413.08,145.15 412.8,147.79 410.45,149.33 407.95,149.23 405.26,149.12 403.03,147.03 402.72,144.19 402.59,142.96 402.7,141.7 402.7,140.46 402.62,140.45 402.55,140.44 402.47,140.43 Z M 402.47,140.43" />
        <path id="canvas4-bezier54" stroke="none" fill="rgb(200, 212, 230)" d="M 174.38,88.84 C 174.15,87.15 173.99,85.26 173.55,83.44 173.44,82.96 172.48,82.45 171.88,82.41 171.41,82.37 170.63,82.92 170.43,83.4 168.94,86.86 168.63,90.39 170.36,93.85 170.66,94.46 171.53,95.17 172.09,95.13 172.67,95.1 173.52,94.3 173.69,93.68 174.09,92.19 174.15,90.61 174.38,88.84 Z M 171.59,79.59 C 175.14,80.18 176.22,81 177.01,84.07 177.9,87.49 177.82,90.88 176.9,94.3 176.23,96.77 174.21,97.46 172.2,97.63 170.22,97.81 168.16,97.17 167.44,94.9 166.1,90.69 166.07,86.38 167.75,82.33 168.26,81.1 170.27,80.49 171.59,79.59 Z M 171.59,79.59" />
        <path id="canvas4-bezier55" stroke="none" fill="rgb(200, 212, 230)" d="M 154.34,62.98 C 154.11,61.13 154.04,59.46 153.64,57.87 153.49,57.24 152.68,56.5 152.05,56.35 151.59,56.25 150.62,56.92 150.4,57.46 148.96,60.95 148.63,64.5 150.59,67.95 150.88,68.45 151.63,69.11 152,69.02 152.59,68.88 153.34,68.24 153.5,67.67 153.93,66.09 154.1,64.44 154.34,62.98 Z M 146.38,62.53 C 146.63,60.73 146.78,58.91 147.17,57.15 147.74,54.58 149.9,53.75 152.08,53.87 154.18,53.99 156.59,54.68 156.85,57.38 157.15,60.57 157.43,63.84 157.06,67 156.64,70.62 154.99,71.53 151.1,71.33 148.52,71.2 146.99,69.49 146.69,66.28 146.58,65.04 146.67,63.79 146.67,62.55 146.58,62.54 146.48,62.54 146.38,62.53 Z M 146.38,62.53" />
        <path id="canvas4-bezier56" stroke="none" fill="rgb(200, 212, 230)" d="M 161.08,88.72 C 160.56,86.82 160.17,85 159.51,83.29 159.33,82.81 158.34,82.4 157.73,82.41 157.27,82.42 156.43,83.13 156.42,83.55 156.3,86.98 156.27,90.42 156.39,93.86 156.4,94.34 157.3,95.11 157.84,95.16 158.41,95.21 159.39,94.68 159.57,94.17 160.21,92.44 160.58,90.61 161.08,88.72 Z M 152.41,90.34 C 152.55,88.37 152.49,86.36 152.87,84.44 153.54,81.07 154.79,80.19 158.18,80.17 161.24,80.14 162.49,80.88 162.99,84.26 163.44,87.31 163.4,90.52 163.04,93.59 162.7,96.42 160.36,97.93 157.75,97.72 154.92,97.49 153,95.66 152.7,92.84 152.61,92.02 152.68,91.18 152.68,90.35 L 152.41,90.34 Z M 152.41,90.34" />
        <path id="canvas4-bezier57" stroke="none" fill="rgb(200, 212, 230)" d="M 121.9,62.43 C 121.9,63.84 121.64,65.31 121.98,66.63 122.23,67.57 123.27,68.29 123.96,69.11 124.69,68.32 125.97,67.58 126.05,66.72 126.32,63.95 126.31,61.12 126.04,58.34 125.97,57.58 124.62,56.95 123.85,56.25 123.2,56.99 122.2,57.63 121.99,58.47 121.67,59.72 121.9,61.1 121.9,62.43 Z M 129.52,62.81 C 129.29,64.29 129.14,65.77 128.81,67.21 128.05,70.57 127.09,71.34 123.99,71.33 121.02,71.32 119.08,70.07 118.78,67.2 118.45,64.04 118.54,60.79 118.79,57.61 118.96,55.59 121.87,53.72 124.04,53.77 126.62,53.83 128.3,55.13 128.8,57.63 129.14,59.33 129.28,61.06 129.52,62.81 Z M 129.52,62.81" />
        <path id="canvas4-bezier58" stroke="none" fill="rgb(200, 212, 230)" d="M 75.92,140.5 C 75.57,138.88 75.44,137.3 74.85,135.91 74.55,135.18 73.47,134.41 72.7,134.37 72.2,134.35 71.21,135.58 71.18,136.28 71.04,139.15 71.09,142.04 71.28,144.91 71.33,145.52 72.24,146.57 72.72,146.56 73.43,146.54 74.47,145.88 74.73,145.23 75.33,143.74 75.55,142.09 75.92,140.5 Z M 78.55,140.88 C 78.38,142.08 78.26,143.99 77.81,145.81 77.2,148.27 75.19,149.13 72.92,149.2 70.5,149.27 68.23,147.61 67.96,145.18 67.61,142.17 67.52,139.05 67.9,136.05 68.3,132.8 70.48,131.21 73.26,131.37 76.21,131.54 77.8,133.12 78.28,136.48 78.46,137.71 78.44,138.96 78.55,140.88 Z M 78.55,140.88" />
        <path id="canvas4-bezier59" stroke="none" fill="rgb(200, 212, 230)" d="M 288.7,62.71 C 288.8,64 288.64,65.58 289.12,66.93 289.44,67.82 290.67,68.39 291.5,69.1 292.06,68.36 293.04,67.65 293.09,66.87 293.28,64.01 293.28,61.13 293.08,58.27 293.03,57.56 291.73,56.27 291.44,56.38 290.51,56.73 289.38,57.48 289.07,58.34 288.62,59.61 288.8,61.11 288.7,62.71 Z M 297.01,62.77 C 296.79,64.32 296.67,65.8 296.36,67.24 295.64,70.56 294.29,71.46 290.45,71.33 288.15,71.26 286.47,69.81 286.24,67.03 285.99,64.03 286.02,60.97 286.24,57.95 286.42,55.47 288.75,53.74 291.27,53.75 293.49,53.76 295.92,55.59 296.31,57.68 296.63,59.37 296.79,61.09 297.01,62.77 Z M 297.01,62.77" />
        <path id="canvas4-bezier60" stroke="none" fill="rgb(200, 212, 230)" d="M 321.9,62.99 C 321.63,61.05 321.55,59.3 321.07,57.66 320.89,57.05 319.81,56.46 319.07,56.34 318.59,56.27 317.5,57.06 317.48,57.48 317.39,60.89 317.42,64.32 317.59,67.73 317.61,68.22 318.57,69.06 319.06,69.04 319.72,69.01 320.73,68.42 320.92,67.85 321.44,66.24 321.62,64.51 321.9,62.99 Z M 313.45,62.74 C 313.77,59.96 313.21,57.08 315.95,55.03 319.1,52.67 322.83,53.77 323.98,57.53 325.12,61.21 325.03,64.86 323.75,68.47 323.05,70.47 321.7,71.45 319.41,71.39 317.02,71.32 315.06,70.57 314.28,68.34 313.66,66.59 313.7,64.61 313.45,62.74 Z M 313.45,62.74" />
        <path id="canvas4-bezier61" stroke="none" fill="rgb(200, 212, 230)" d="M 98.36,62.95 C 98.17,61.03 98.14,59.35 97.76,57.76 97.62,57.16 96.69,56.41 96.07,56.35 95.42,56.3 94.12,56.97 94.11,57.37 93.98,60.8 94.01,64.25 94.19,67.68 94.22,68.19 95.35,69.01 95.96,69 96.55,69 97.47,68.2 97.64,67.58 98.07,66.01 98.17,64.34 98.36,62.95 Z M 101.88,63.1 C 101.64,64.53 101.46,66.1 101.09,67.62 100.44,70.32 98.76,71.34 95.52,71.35 92.91,71.36 91.34,70.07 91.2,67.56 91.01,64.21 90.96,60.82 91.25,57.48 91.45,55.12 93.51,53.74 95.85,53.75 98.21,53.76 100.89,55.68 101.26,57.78 101.56,59.49 101.67,61.23 101.88,63.1 Z M 101.88,63.1" />
        <path id="canvas4-bezier62" stroke="none" fill="rgb(200, 212, 230)" d="M 76.84,88.69 C 76.62,87.17 76.54,85.49 76.07,83.93 75.87,83.27 74.84,82.45 74.2,82.45 73.58,82.47 72.48,83.42 72.44,84 72.26,87.2 72.25,90.42 72.42,93.62 72.45,94.2 73.64,95.22 74.16,95.15 74.91,95.04 75.92,94.22 76.14,93.5 76.6,92.02 76.62,90.41 76.84,88.69 Z M 68.53,88.6 C 68.69,87.33 68.88,85.53 69.17,83.74 69.57,81.28 71.4,80.39 73.57,80.2 76.7,79.92 77.95,80.72 78.8,83.2 79.98,86.67 80.04,90.18 79.1,93.71 78.42,96.27 76.5,97.84 74.13,97.74 72.36,97.67 69.14,95.98 68.89,93.61 68.73,92.13 68.67,90.64 68.53,88.6 Z M 68.53,88.6" />
        <path id="canvas4-bezier63" stroke="none" fill="rgb(200, 212, 230)" d="M 301.29,88.65 C 301.2,87.53 301.31,85.89 300.83,84.45 300.54,83.59 299.31,83.04 298.5,82.36 297.95,83.08 296.97,83.78 296.92,84.54 296.73,87.4 296.7,90.29 296.91,93.14 296.97,93.89 298.12,94.56 298.77,95.26 299.53,94.53 300.65,93.93 300.97,93.03 301.4,91.84 301.2,90.42 301.29,88.65 Z M 293.01,88.61 C 293.22,87.03 293.33,85.29 293.7,83.61 294.2,81.41 295.83,80.41 297.99,80.17 300.3,79.92 302.6,80.27 303.21,82.78 303.87,85.54 303.88,88.45 304.13,91.3 304.16,91.69 303.92,92.09 303.86,92.5 303.32,96.17 301.85,97.7 298.79,97.75 296.29,97.79 294.13,95.88 293.53,92.94 293.25,91.58 293.19,90.17 293.01,88.61 Z M 293.01,88.61" />
        <path id="canvas4-bezier64" stroke="none" fill="rgb(200, 212, 230)" d="M 358.64,62.82 C 358.72,63.99 358.55,65.48 358.99,66.76 359.31,67.69 360.45,68.35 361.22,69.12 361.86,68.35 362.98,67.63 363.04,66.81 363.28,64.03 363.28,61.21 363.05,58.43 362.99,57.66 361.86,56.97 361.22,56.25 360.44,57.04 359.31,57.7 358.96,58.65 358.53,59.83 358.73,61.26 358.64,62.82 Z M 367,62.89 C 366.79,64.19 366.67,65.51 366.36,66.79 365.44,70.67 364.22,71.69 360.27,71.23 359.02,71.09 357.3,70.05 356.85,68.97 355.22,65.14 355.32,61.09 356.46,57.08 357.18,54.56 359.19,53.85 361.44,53.8 363.76,53.76 365.96,55.75 366.32,57.95 366.59,59.57 366.77,61.21 367,62.89 Z M 367,62.89" />
        <path id="canvas4-bezier65" stroke="none" fill="rgb(200, 212, 230)" d="M 168.4,62.69 C 168.14,60.93 168,59.19 167.57,57.52 167.44,57 166.51,56.33 165.97,56.35 165.28,56.37 164.04,57.01 164.03,57.41 163.9,60.85 163.93,64.3 164.12,67.73 164.14,68.23 165.29,69.04 165.9,69.02 166.49,69 167.38,68.2 167.56,67.57 168.01,66 168.14,64.34 168.4,62.69 Z M 165.77,71.33 C 163.21,71.52 161.41,70.37 161.2,67.85 160.91,64.52 160.8,61.11 161.2,57.81 161.54,54.93 163.52,53.62 165.98,53.75 168.26,53.86 170.97,55.79 171.14,57.98 171.38,61.07 171.41,64.25 171,67.31 170.61,70.26 168.82,71.35 165.77,71.33 Z M 165.77,71.33" />
        <path id="canvas4-bezier66" stroke="none" fill="rgb(200, 212, 230)" d="M 263.3,9.57 C 263.16,8.01 263.2,6.4 262.82,4.9 262.64,4.2 261.63,3.19 261.05,3.23 260.27,3.28 258.96,4.17 258.92,4.76 258.71,7.87 258.74,11.01 258.94,14.13 258.98,14.67 260.22,15.53 260.9,15.52 261.56,15.51 262.59,14.68 262.78,14.02 263.18,12.61 263.15,11.08 263.3,9.57 Z M 255.31,9.47 C 255.76,7.31 256.11,5.13 256.68,3.01 257.11,1.42 257.99,0.58 259.98,1.01 265.45,2.18 265.75,0.68 266.56,7.79 266.93,11.13 267.07,14.7 263.88,17.3 262.21,18.65 259.15,18.81 257.69,17.23 255.65,15.02 255.52,12.32 255.31,9.47 Z M 255.31,9.47" />
        <path id="canvas4-bezier67" stroke="none" fill="rgb(200, 212, 230)" d="M 312.87,140.19 C 312.64,138.72 312.58,137.13 312.11,135.67 311.88,134.96 310.9,134.04 310.27,134.04 309.59,134.04 308.36,134.98 308.33,135.57 308.13,138.81 308.13,142.09 308.33,145.33 308.36,145.84 309.77,146.6 310.54,146.6 311.11,146.59 311.98,145.62 312.17,144.93 312.58,143.44 312.64,141.85 312.87,140.19 Z M 316.53,140.72 C 315.7,142.95 315.17,145.36 313.96,147.35 312.71,149.4 310.41,149.75 308.21,148.74 306.23,147.84 305.32,146.36 305.58,143.95 305.76,142.22 305.3,140.36 304.86,138.63 304.19,136.06 305.49,133.99 307.09,132.7 308.31,131.72 311.03,131.24 312.26,131.95 313.87,132.89 314.87,135.13 315.75,137 316.2,137.95 315.83,139.29 315.83,140.46 L 316.53,140.72 Z M 316.53,140.72" />
        <path id="canvas4-bezier68" stroke="none" fill="rgb(200, 212, 230)" d="M 84.38,62.98 C 84.13,61.02 84.02,59.29 83.63,57.62 83.5,57.08 82.69,56.46 82.1,56.34 81.65,56.26 80.75,56.78 80.57,57.24 79.14,60.81 78.66,64.43 80.71,67.95 81,68.44 81.67,69.05 82.12,69.02 82.61,68.99 83.35,68.35 83.48,67.85 83.91,66.2 84.12,64.49 84.38,62.98 Z M 76.47,62.97 C 75.72,58.34 79.21,56.44 82.11,54.33 83.5,53.31 86.24,54.94 86.93,57.09 88.2,61.09 88.02,65.16 86.6,69.02 85.71,71.43 83.28,71.44 81.04,71.34 79.02,71.26 77.72,70.19 77.26,68.34 76.82,66.59 76.72,64.77 76.47,62.97 Z M 76.47,62.97" />
        <path id="canvas4-bezier69" stroke="none" fill="rgb(200, 212, 230)" d="M 43.67,197.27 C 43.67,194.35 43.84,191.76 43.58,189.22 43.48,188.22 42.52,186.6 41.8,186.52 40.39,186.35 39.25,187.36 39.26,189.12 39.28,191.43 38.99,193.76 39.3,196.02 39.47,197.27 40.57,198.4 41.26,199.59 41.5,199.49 41.74,199.4 41.98,199.31 41.87,200.08 41.75,200.85 41.63,201.69 39.65,201.9 38.35,201.26 37.51,199.54 35.53,195.51 35.68,191.34 36.94,187.22 37.85,184.27 39.37,183.44 42.13,183.67 44.39,183.86 46.29,185.61 46.79,188.11 47.07,189.48 47.15,190.9 47.32,192.29 47.64,194.88 46.25,196.26 43.67,197.27 Z M 43.67,197.27" />
        <path id="canvas4-bezier70" stroke="none" fill="rgb(16, 67, 145)" d="M 324.54,241.44 C 325.25,239.37 325.96,237.3 326.66,235.22 328.66,229.35 330.66,223.48 332.66,217.61 333.49,215.2 335.31,216.44 337.17,216.35 336.58,218.38 336.11,220.19 335.52,221.96 334,226.49 332.44,231.01 330.85,235.53 330.2,237.38 329.71,239.4 328.59,240.95 327.98,241.78 326.21,241.77 324.96,242.15 324.82,241.91 324.68,241.68 324.54,241.44 Z M 324.54,241.44" />
        <path id="canvas4-bezier71" stroke="none" fill="rgb(200, 212, 230)" d="M 178.38,3.23 C 180.66,1.62 181.74,1.8 182.06,4.47 182.45,7.69 182.47,11.04 182.02,14.25 181.58,17.35 179.21,18.63 175.97,18.33 173.96,18.15 171.94,15.75 171.71,12.9 171.54,10.67 171.36,8.35 171.8,6.2 172.04,5.06 173.6,4.2 174.57,3.21 174.74,3.39 174.9,3.57 175.07,3.75 174.82,5.89 174.38,8.04 174.4,10.18 174.4,11.61 174.96,13.08 175.49,14.45 175.7,14.98 176.62,15.64 177.08,15.56 177.74,15.44 178.73,14.74 178.81,14.19 179.29,10.6 179.67,6.99 178.38,3.23 Z M 178.38,3.23" />
        <path id="canvas4-bezier72" stroke="none" fill="rgb(200, 212, 230)" d="M 195.59,42.59 C 195.11,43.04 194.34,44.25 193.77,44.16 192.9,44.03 191.94,43.14 191.44,42.31 188.71,37.82 188.9,33.26 191.4,28.71 192.56,26.6 196.16,25.69 198.05,27.17 200.61,29.19 201.11,32.13 201.23,35.14 201.25,35.55 200.83,36.01 200.53,36.38 199.68,37.42 198.78,38.42 197.66,39.71 197.66,37.44 197.72,35.23 197.64,33.03 197.6,32.07 197.49,30.98 197,30.21 196.67,29.68 195.61,29.34 194.91,29.39 194.36,29.42 193.43,30.17 193.41,30.63 193.27,33.82 193.2,37.03 193.41,40.22 193.46,40.96 194.67,41.63 195.59,42.59 Z M 195.59,42.59" />
        <path id="canvas4-bezier73" stroke="none" fill="rgb(16, 67, 145)" d="M 338.34,239.16 C 337.51,235.91 338.07,233.86 341.17,232.98 342.25,232.68 343.18,231.86 344.85,230.89 343.33,229.91 342.32,228.89 341.11,228.54 337.95,227.63 337.55,225.56 338.35,222.46 343.13,225.17 347.82,227.84 353.01,230.78 347.89,233.71 343.17,236.4 338.34,239.16 Z M 338.34,239.16" />
        <path id="canvas4-bezier74" stroke="none" fill="rgb(200, 212, 230)" d="M 22.12,166.57 C 22.35,168.19 22.45,169.93 22.9,171.57 23.06,172.15 24.1,172.86 24.72,172.85 25.35,172.84 26.48,172.04 26.51,171.54 26.67,168.28 26.67,165.01 26.51,161.75 26.49,161.26 25.34,160.42 24.77,160.46 24.07,160.51 23.03,161.2 22.83,161.83 22.38,163.3 22.34,164.9 22.12,166.57 Z M 30.22,166.56 C 30.94,169.65 29.49,172.06 27.81,174.37 26.68,175.93 24.07,176.49 22.48,175.18 21.13,174.06 19.28,173.16 20.22,170.42 21.31,167.27 21.46,163.8 22.21,160.5 22.44,159.49 23.12,158 23.87,157.8 25.62,157.33 27.72,157.45 28.59,159.5 29.53,161.72 30.12,164.1 30.87,166.41 30.65,166.46 30.43,166.51 30.22,166.56 Z M 30.22,166.56" />
        <path id="canvas4-bezier75" stroke="none" fill="rgb(16, 67, 145)" d="M 100.55,230.84 C 102.21,231.8 103.16,232.44 104.18,232.93 107.82,234.67 107.83,234.65 107.11,239.09 102.3,236.36 97.61,233.69 92.51,230.79 97.57,227.91 102.25,225.25 107,222.55 107.97,226.58 107.81,226.89 104.52,228.48 103.36,229.03 102.3,229.79 100.55,230.84 Z M 100.55,230.84" />
        <path id="canvas4-bezier76" stroke="none" fill="rgb(200, 212, 230)" d="M 277.17,5.37 C 280.59,5.49 280.99,5.72 280.77,8.71 280.61,10.87 280.11,13.07 279.36,15.1 278.5,17.42 276.64,19.26 274.06,18.21 272.35,17.52 270.26,15.83 269.89,14.23 269.21,11.28 269.58,8.06 269.77,4.96 269.79,4.5 271.18,4.13 271.93,3.71 272.21,4.38 272.71,5.05 272.73,5.73 272.84,8.28 272.6,10.85 272.91,13.36 273.01,14.2 274.37,14.89 275.15,15.66 275.82,14.78 276.98,13.96 277.08,13.03 277.35,10.5 277.17,7.93 277.17,5.37 Z M 277.17,5.37" />
        <path id="canvas4-bezier77" stroke="none" fill="rgb(200, 212, 230)" d="M 337,32.03 C 341.24,33.91 340.87,37.33 339.47,40.55 338.56,42.64 337.69,44.58 334.83,44.65 331.96,44.72 329.69,42.05 329.33,39.85 328.87,37.03 329.16,34.08 329.27,31.19 329.29,30.52 329.81,29.77 330.31,29.27 330.67,28.91 331.61,28.6 331.9,28.81 332.36,29.14 332.72,29.93 332.71,30.52 332.67,33.4 332.3,36.29 332.45,39.16 332.49,40.05 333.64,41.3 334.56,41.64 336.11,42.21 336.86,40.79 336.95,39.54 337.13,37.14 337,34.73 337,32.03 Z M 337,32.03" />
        <path id="canvas4-bezier78" stroke="none" fill="rgb(16, 67, 145)" d="M 196.66,219.16 C 196.66,225.24 196.93,231.23 196.54,237.18 196.37,239.85 193.88,238.15 192.25,238.43 L 192.25,219.16 196.66,219.16 Z M 196.66,219.16" />
        <path id="canvas4-bezier79" stroke="none" fill="rgb(200, 212, 230)" d="M 269.26,65.13 C 266.95,65.4 266.06,65.11 266.11,63.29 266.16,61.65 266.09,59.91 265.55,58.39 265.24,57.49 263.91,56.96 263.04,56.26 262.47,57.02 261.64,57.71 261.39,58.57 261.06,59.74 260.99,61.06 261.13,62.27 261.39,64.56 260.56,65.91 257.97,66.35 257.35,62.61 257.14,58.79 259.34,55.52 260.86,53.26 266.58,52.83 267.63,56.34 268.47,59.11 268.72,62.05 269.26,65.13 Z M 269.26,65.13" />
        <path id="canvas4-bezier80" stroke="none" fill="rgb(200, 212, 230)" d="M 277.2,58.7 C 275.47,59.43 274.3,59.92 272.89,60.52 272.8,59.82 272.49,59.01 272.71,58.82 274.71,57.06 276.79,55.39 278.92,53.79 279.01,53.71 280.23,54.57 280.24,55.01 280.33,60.31 280.3,65.62 280.3,71.18 279.24,71.23 278.38,71.28 277.2,71.34 L 277.2,58.7 Z M 277.2,58.7" />
        <path id="canvas4-bezier81" stroke="none" fill="rgb(200, 212, 230)" d="M 140.82,71.23 L 137.71,71.23 137.71,58.84 C 136.07,59.52 134.81,60.04 133.44,60.61 132.87,58.75 133.19,57.77 135.03,57.05 136.25,56.57 137.06,55.16 138.17,54.33 138.69,53.95 139.52,53.82 140.17,53.89 140.43,53.91 140.79,54.78 140.8,55.27 140.84,60.49 140.82,65.72 140.82,71.23 Z M 140.82,71.23" />
        <path id="canvas4-bezier82" stroke="none" fill="rgb(200, 212, 230)" d="M 292.67,44.1 L 292.67,31.13 C 291.03,32.07 289.75,32.8 288.4,33.58 287.87,31.74 288.22,30.76 289.88,30 290.98,29.5 291.66,28.15 292.66,27.34 293.22,26.88 294.08,26.49 294.75,26.56 295.15,26.59 295.75,27.58 295.76,28.15 295.83,33.39 295.8,38.63 295.8,44.1 L 292.67,44.1 Z M 292.67,44.1" />
        <path id="canvas4-bezier83" stroke="none" fill="rgb(200, 212, 230)" d="M 156.32,44.23 L 153.24,44.23 153.24,31.27 C 151.55,32.24 150.28,32.97 148.91,33.76 148.4,31.9 148.6,30.82 150.36,30.14 151.33,29.76 151.96,28.58 152.86,27.91 153.64,27.33 154.58,26.95 155.45,26.49 155.74,27.25 156.27,28.01 156.28,28.78 156.36,33.83 156.32,38.88 156.32,44.23 Z M 156.32,44.23" />
        <path id="canvas4-bezier84" stroke="none" fill="rgb(200, 212, 230)" d="M 328.47,60.68 C 328.07,58.66 328.55,57.76 330.07,57.08 331.19,56.58 331.99,55.38 333.03,54.64 333.65,54.2 334.45,53.92 335.2,53.85 335.45,53.83 336.03,54.67 336.04,55.12 336.1,60.43 336.08,65.74 336.08,71.01 332.77,71.59 332.75,71.58 332.74,68.57 332.74,65.44 332.74,62.3 332.74,58.99 331.19,59.61 329.93,60.11 328.47,60.68 Z M 328.47,60.68" />
        <path id="canvas4-bezier85" stroke="none" fill="rgb(200, 212, 230)" d="M 418.09,188.55 C 416.34,189.69 415.3,190.38 414.08,191.18 413.44,189.2 413.43,188.14 415.34,187.5 416.41,187.14 417.21,185.97 418.15,185.19 418.94,184.53 419.75,183.91 420.56,183.27 420.76,183.46 420.97,183.66 421.18,183.85 L 421.18,201.19 C 420.35,201.25 419.49,201.3 418.09,201.39 L 418.09,188.55 Z M 418.09,188.55" />
        <path id="canvas4-bezier86" stroke="none" fill="rgb(200, 212, 230)" d="M 30.38,201.24 L 27.39,201.24 27.39,188.66 C 25.68,189.58 24.47,190.23 23.2,190.91 22.14,189.03 23.12,188.18 24.39,187.33 25.39,186.67 26.24,185.81 27.19,185.08 28.02,184.45 28.91,183.88 29.77,183.29 29.97,183.48 30.18,183.68 30.38,183.87 L 30.38,201.24 Z M 30.38,201.24" />
        <path id="canvas4-bezier87" stroke="none" fill="rgb(200, 212, 230)" d="M 112.82,71.17 L 109.59,71.17 109.59,58.66 C 108.15,59.39 107.11,59.93 105.97,60.52 105.32,58.8 105.66,57.86 107.24,57.04 108.44,56.41 109.27,55.1 110.38,54.25 110.83,53.9 111.63,53.75 112.18,53.88 112.49,53.95 112.79,54.78 112.8,55.27 112.84,60.49 112.82,65.7 112.82,71.17 Z M 112.82,71.17" />
        <path id="canvas4-bezier88" stroke="none" fill="rgb(200, 212, 230)" d="M 315.68,97.24 L 312.67,97.24 312.67,84.85 C 311.06,85.56 309.81,86.1 308.52,86.66 307.97,83.85 312.54,79.92 315.68,80.46 L 315.68,97.24 Z M 315.68,97.24" />
        <path id="canvas4-bezier89" stroke="none" fill="rgb(200, 212, 230)" d="M 146.69,97.2 L 143.7,97.2 143.7,84.91 C 142.12,85.67 140.84,86.29 139.49,86.94 139.09,84.35 144.13,80 146.69,80.49 L 146.69,97.2 Z M 146.69,97.2" />
        <path id="canvas4-bezier90" stroke="none" fill="rgb(200, 212, 230)" d="M 300.49,60.25 C 300.79,59.39 300.86,58.31 301.43,57.73 302.73,56.4 304.25,55.26 305.75,54.15 306.68,53.47 307.78,53.29 307.8,54.91 307.87,60.29 307.82,65.66 307.82,71 305.42,71.82 304.6,71.11 304.7,68.79 304.84,65.58 304.73,62.37 304.73,58.87 303.32,59.55 302.24,60.07 301.16,60.58 300.94,60.47 300.71,60.36 300.49,60.25 Z M 300.49,60.25" />
        <path id="canvas4-bezier91" stroke="none" fill="rgb(200, 212, 230)" d="M 61.83,148.51 C 59.27,149.37 58.55,148.5 58.65,146.24 58.79,143.09 58.69,139.93 58.69,136.46 57.17,137.14 55.89,137.72 54.44,138.37 54.08,136.97 53.88,136.18 55.42,135.45 56.75,134.82 57.61,133.29 58.81,132.32 59.43,131.81 60.33,131.65 61.11,131.33 61.35,131.96 61.79,132.59 61.8,133.22 61.85,138.29 61.83,143.36 61.83,148.51 Z M 61.83,148.51" />
        <path id="canvas4-bezier92" stroke="none" fill="rgb(200, 212, 230)" d="M 282.83,44.18 L 279.75,44.18 279.75,31.11 C 278.23,32.15 277.15,32.89 275.91,33.73 275.46,32.07 275.54,30.98 277.13,30.12 278.09,29.6 278.66,28.42 279.55,27.72 280.27,27.17 281.22,26.91 282.07,26.51 282.32,27.22 282.79,27.92 282.8,28.63 282.86,33.76 282.83,38.9 282.83,44.18 Z M 282.83,44.18" />
        <path id="canvas4-bezier93" stroke="none" fill="rgb(200, 212, 230)" d="M 87.84,84.94 C 86.1,85.66 84.85,86.17 83.54,86.72 83.28,84.07 88.11,80.02 90.9,80.47 L 90.9,97.17 87.84,97.17 87.84,84.94 Z M 87.84,84.94" />
        <path id="canvas4-bezier94" stroke="none" fill="rgb(200, 212, 230)" d="M 67.32,106.28 C 67.32,111.68 67.37,116.82 67.25,121.97 67.23,122.5 66.21,123 65.66,123.52 65.16,122.94 64.25,122.39 64.23,121.79 64.1,118.25 64.16,114.71 64.16,110.88 62.62,111.69 61.43,112.33 59.68,113.25 59.81,112.08 59.75,110.92 59.96,110.87 62.86,110.19 63.24,105.63 67.32,106.28 Z M 67.32,106.28" />
        <path id="canvas4-bezier95" stroke="none" fill="rgb(200, 212, 230)" d="M 402.25,106.24 L 402.25,123.3 C 401.3,123.36 400.38,123.41 399.16,123.49 L 399.16,110.91 C 397.63,111.71 396.44,112.33 394.68,113.26 394.83,112.06 394.8,110.91 395.01,110.86 397.93,110.24 398.35,105.71 402.25,106.24 Z M 402.25,106.24" />
        <path id="canvas4-bezier96" stroke="none" fill="rgb(200, 212, 230)" d="M 332.2,123.21 C 329.83,124.05 329.03,123.3 329.14,120.96 329.29,117.82 329.18,114.67 329.18,111.14 327.67,111.85 326.47,112.42 324.71,113.25 324.84,112.07 324.81,110.9 325.01,110.86 327.95,110.27 328.4,105.75 332.2,106.25 L 332.2,123.21 Z M 332.2,123.21" />
        <path id="canvas4-bezier97" stroke="none" fill="rgb(200, 212, 230)" d="M 59.76,97.19 L 59.76,84.89 C 58.31,85.59 57.18,86.13 56.03,86.69 55.53,84.11 59.49,80.27 62.63,80.33 L 62.63,97.19 59.76,97.19 Z M 59.76,97.19" />
        <path id="canvas4-bezier98" stroke="none" fill="rgb(200, 212, 230)" d="M 327.7,80.39 L 327.7,97.15 324.82,97.15 324.82,84.89 C 323.36,85.59 322.24,86.12 321.07,86.68 320.66,84.18 324.92,80.17 327.7,80.39 Z M 327.7,80.39" />
        <path id="canvas4-bezier99" stroke="none" fill="rgb(200, 212, 230)" d="M 323.76,148.63 L 323.76,136.42 C 322.21,137.15 320.94,137.74 319.67,138.33 319.48,138.19 319.29,138.04 319.1,137.9 319.4,137.17 319.52,136.29 320.03,135.76 321.19,134.55 322.49,133.46 323.82,132.44 324.48,131.94 325.33,131.69 326.1,131.33 326.43,132.08 327.04,132.82 327.06,133.58 327.16,137.16 326.98,140.74 327.15,144.31 327.26,146.64 326.25,147.87 323.76,148.63 Z M 323.76,148.63" />
        <path id="canvas4-bezier100" stroke="none" fill="rgb(200, 212, 230)" d="M 284.18,7.11 C 286.57,7.09 287.46,8.06 287.36,10.17 287.31,11.39 287.38,12.72 287.83,13.81 288.16,14.59 289.4,15.67 289.91,15.52 290.78,15.27 291.7,14.27 292.06,13.37 292.43,12.45 292.14,11.26 292.14,10.22 295.61,9.76 296.2,11.88 294.47,14.6 293.49,16.13 293.17,18.26 290.69,18.35 287.43,18.47 284.45,16.02 284.2,12.74 284.07,10.93 284.18,9.1 284.18,7.11 Z M 284.18,7.11" />
        <path id="canvas4-bezier101" stroke="none" fill="rgb(200, 212, 230)" d="M 323.33,44.19 L 320.61,44.19 320.61,30.89 C 318.92,32.04 317.75,32.84 316.42,33.75 315.91,32 316.06,30.92 317.78,30.04 318.98,29.42 319.8,28.09 320.88,27.19 321.33,26.82 322.11,26.46 322.58,26.61 322.95,26.72 323.29,27.61 323.3,28.16 323.35,33.4 323.33,38.65 323.33,44.19 Z M 323.33,44.19" />
        <path id="canvas4-bezier102" stroke="none" fill="rgb(200, 212, 230)" d="M 183.83,44.32 C 182.8,44.26 182.1,44.23 181.17,44.18 L 181.17,31.17 C 179.55,32.12 178.33,32.83 177.11,33.55 176.41,31.32 176.47,31.39 178.05,30.22 179.27,29.31 180.29,28.13 181.48,27.18 181.94,26.81 182.65,26.58 183.21,26.63 183.46,26.66 183.8,27.54 183.8,28.03 183.84,33.33 183.83,38.63 183.83,44.32 Z M 183.83,44.32" />
        <path id="canvas4-bezier103" stroke="none" fill="rgb(200, 212, 230)" d="M 118.67,97.18 L 116.17,97.18 116.17,84.72 C 114.54,85.45 113.24,86.03 111.91,86.63 111.61,84.04 115.83,80.13 118.67,80.37 L 118.67,97.18 Z M 118.67,97.18" />
        <path id="canvas4-bezier104" stroke="none" fill="rgb(200, 212, 230)" d="M 383.67,97.32 C 382.78,97.27 382.08,97.23 381.14,97.18 L 381.14,84.84 C 379.57,85.53 378.33,86.08 377.07,86.64 376.53,84.2 380.69,80.21 383.67,80.37 L 383.67,97.32 Z M 383.67,97.32" />
        <path id="canvas4-bezier105" stroke="none" fill="rgb(200, 212, 230)" d="M 304.32,106.5 C 304.32,111.69 304.35,116.91 304.26,122.13 304.25,122.59 303.43,123.04 302.98,123.49 302.55,122.96 301.74,122.43 301.73,121.88 301.61,118.41 301.67,114.93 301.67,111.13 300.07,111.71 298.79,112.16 297.52,112.62 297.09,110.46 301.74,106.12 304.32,106.5 Z M 304.32,106.5" />
        <path id="canvas4-bezier106" stroke="none" fill="rgb(200, 212, 230)" d="M 190.2,68.87 C 188.19,64.48 188.77,57.63 191.32,55.22 192.82,53.81 194.22,53.29 195.93,55.22 197.11,56.54 198.79,57.41 200.24,58.49 200,58.75 199.76,59.01 199.52,59.28 198.93,60.23 198.34,61.18 197.5,62.52 197.2,60.61 197.17,59.11 196.67,57.79 196.4,57.1 195.32,56.36 194.56,56.31 194.02,56.27 193.01,57.26 192.88,57.92 192.51,59.76 192.33,61.68 192.37,63.56 192.42,65.63 192.17,67.46 190.2,68.87 Z M 190.2,68.87" />
        <path id="canvas4-bezier107" stroke="none" fill="rgb(200, 212, 230)" d="M 33.81,148.67 L 31.19,148.67 31.19,136.47 C 30.59,136.52 30.21,136.51 29.85,136.6 29.48,136.69 29.14,136.88 28.79,137.03 L 28.26,136.56 C 29.3,134.98 30.27,133.36 31.43,131.88 31.73,131.5 32.64,131.36 33.18,131.49 33.49,131.57 33.78,132.41 33.78,132.91 33.82,138.06 33.81,143.21 33.81,148.67 Z M 33.81,148.67" />
        <path id="canvas4-bezier108" stroke="none" fill="rgb(200, 212, 230)" d="M 145.79,114.37 C 144.74,113.95 143.84,113.59 142.97,113.25 143,107.07 145.66,105.96 149.53,106.22 152.52,106.42 154.25,110.31 153.59,115.15 152.1,115.52 151.24,115.44 151.06,113.41 150.93,111.92 150.06,110.43 149.29,109.07 148.57,107.8 147.56,108.1 147.12,109.31 146.56,110.82 146.28,112.42 145.79,114.37 Z M 145.79,114.37" />
        <path id="canvas4-bezier109" stroke="none" fill="rgb(200, 212, 230)" d="M 288.68,94.45 C 288.17,91.62 287.72,88.78 287.13,85.97 286.89,84.79 286.65,83.4 285.89,82.61 284.8,81.49 283.26,82.54 282.09,85.5 281.42,84.2 280.31,82.88 280.59,82.43 281.21,81.44 282.45,80.44 283.57,80.26 287.27,79.67 287.74,79.95 289.71,84.34 291.21,87.67 290.81,91.1 289.48,94.38 289.21,94.41 288.94,94.43 288.68,94.45 Z M 288.68,94.45" />
        <path id="canvas4-bezier110" stroke="none" fill="rgb(200, 212, 230)" d="M 391.58,83.46 C 391.99,85.46 392.47,87.44 392.79,89.45 392.97,90.59 392.66,91.84 393,92.9 393.28,93.8 394.07,94.96 394.84,95.15 395.63,95.34 396.67,94.49 397.78,94.02 397.97,94.35 398.42,95.09 399.23,96.47 397.49,96.92 396,97.66 394.54,97.61 391.99,97.52 390.33,95.45 389.93,93.36 389.38,90.51 389.8,87.46 389.87,84.5 389.88,84.17 390.33,83.85 390.58,83.52 390.91,83.5 391.25,83.48 391.58,83.46 Z M 391.58,83.46" />
        <path id="canvas4-bezier111" stroke="none" fill="rgb(200, 212, 230)" d="M 244.67,59.23 C 246.23,57.56 247.73,55.83 249.39,54.26 249.83,53.85 250.8,53.71 251.42,53.86 251.81,53.96 252.23,54.84 252.24,55.38 252.31,59.03 252.28,62.68 252.28,66.33 L 251.58,66.8 C 250.69,65.73 249.43,64.8 249.01,63.57 248.56,62.24 248.91,60.65 248.91,59.09 247.34,59.49 246.12,59.81 244.89,60.12 244.82,59.82 244.74,59.53 244.67,59.23 Z M 244.67,59.23" />
        <path id="canvas4-bezier112" stroke="none" fill="rgb(200, 212, 230)" d="M 92.12,121.55 L 92.12,110.99 C 90.64,111.68 89.34,112.28 87.99,112.91 87.66,110.67 92.63,106.16 95.05,106.33 96.16,111.52 94.93,116.3 92.12,121.55 Z M 92.12,121.55" />
        <path id="canvas4-bezier113" stroke="none" fill="rgb(200, 212, 230)" d="M 387.14,106.59 C 392.04,108.61 393.04,118.67 388.4,122.84 388.08,121.65 387.67,120.77 387.62,119.88 387.45,116.45 387.39,113.01 387.28,109.57 387.25,108.67 387.2,107.76 387.14,106.59 Z M 387.14,106.59" />
        <path id="canvas4-bezier114" stroke="none" fill="rgb(200, 212, 230)" d="M 162.21,111.04 C 160.51,111.77 159.32,112.27 158.12,112.78 157.5,110.58 162.48,106.05 165.17,106.42 L 165.17,117.31 C 164.15,117.08 163.31,116.9 162.21,116.65 L 162.21,111.04 Z M 162.21,111.04" />
        <path id="canvas4-bezier115" stroke="none" fill="rgb(200, 212, 230)" d="M 66.61,162.38 C 64.93,163.13 63.64,163.71 62.2,164.35 62.14,164.17 61.96,163.89 61.97,163.61 62.03,161.8 67.16,157.67 69.27,157.95 68.96,162.22 70.58,166.83 66.61,170.91 L 66.61,162.38 Z M 66.61,162.38" />
        <path id="canvas4-bezier116" stroke="none" fill="rgb(200, 212, 230)" d="M 144.19,13.89 C 144.86,13.67 145.55,13.45 146.31,13.21 146.46,13.34 146.72,13.45 146.8,13.65 147.34,14.98 148.23,16.27 149.69,15.54 150.61,15.09 151.45,13.64 151.56,12.56 151.74,10.73 153.81,9.73 153.93,10.32 154.76,14.5 152.87,18.05 150.27,18.33 146.95,18.7 144.45,16.9 144.19,13.89 Z M 144.19,13.89" />
        <path id="canvas4-bezier117" stroke="none" fill="rgb(200, 212, 230)" d="M 114.01,29.95 C 114.01,34.38 114.05,38.81 113.94,43.23 113.93,43.61 112.97,44.19 112.42,44.24 112.05,44.27 111.28,43.52 111.27,43.1 111.18,39.38 111.1,35.64 111.32,31.93 111.36,31.12 112.61,30.38 113.31,29.61 113.54,29.73 113.78,29.84 114.01,29.95 Z M 114.01,29.95" />
        <path id="canvas4-bezier118" stroke="none" fill="rgb(200, 212, 230)" d="M 165.71,6.22 L 165.71,18.05 C 163.59,18.69 162.45,18.39 162.64,15.88 162.81,13.66 162.82,11.4 162.63,9.18 162.45,6.97 163.42,6.22 165.71,6.22 Z M 165.71,6.22" />
        <path id="canvas4-bezier119" stroke="none" fill="rgb(200, 212, 230)" d="M 242.77,36.16 C 242.06,34.64 241.44,33.07 240.6,31.63 240.1,30.76 239.3,30.04 238.54,29.35 237.79,28.67 236.93,28.13 235.73,27.23 241.55,25.28 243.79,28.85 243.66,35.78 243.37,35.91 243.07,36.03 242.77,36.16 Z M 242.77,36.16" />
        <path id="canvas4-bezier120" stroke="none" fill="rgb(200, 212, 230)" d="M 307.75,15.62 C 306.73,18.9 304.38,18.56 302.3,18.24 299.98,17.89 298.46,15.27 298.31,11.3 299.76,12.49 301.12,13.17 301.77,14.26 302.6,15.64 303.37,15.82 304.8,15.44 305.68,15.21 306.72,15.54 307.75,15.62 Z M 307.75,15.62" />
        <path id="canvas4-bezier121" stroke="none" fill="rgb(200, 212, 230)" d="M 402.74,161.44 L 402.74,171.99 C 402.56,172.14 402.39,172.28 402.21,172.43 401.38,171.5 400.01,170.66 399.83,169.62 399,164.89 399.54,163.65 402.74,161.44 Z M 402.74,161.44" />
        <path id="canvas4-bezier122" stroke="none" fill="rgb(200, 212, 230)" d="M 129.44,111.4 C 131.1,109.98 132.44,109.15 133.34,107.98 134.33,106.7 135.2,105.68 137.14,106.42 L 137.14,112.43 C 135.92,112.12 134.77,111.83 133.12,111.4 L 129.44,111.4 Z M 129.44,111.4" />
        <path id="canvas4-bezier123" stroke="none" fill="rgb(200, 212, 230)" d="M 94.18,43.29 C 97.77,42.24 100.11,39.62 102.63,36.49 103.12,39.84 102.38,42.22 100.35,43.74 98.59,45.06 96.37,44.85 94.18,43.29 Z M 94.18,43.29" />
        <path id="canvas4-bezier124" stroke="none" fill="rgb(200, 212, 230)" d="M 111.09,108.16 C 109.38,108.2 108.46,110.03 106.95,108.48 106.82,108.35 105.16,109.52 104.41,110.28 103.95,110.75 103.85,111.6 103.54,112.41 102.74,112.15 102.05,111.93 101.38,111.72 102.3,105.88 105.73,104.43 111.09,108.16 Z M 111.09,108.16" />
        <path id="canvas4-bezier125" stroke="none" fill="rgb(200, 212, 230)" d="M 408.49,112.9 C 410.17,116.54 411.85,120.17 413.66,124.09 408.27,122.49 407.81,121.08 408.49,112.9 Z M 408.49,112.9" />
        <path id="canvas4-bezier126" stroke="none" fill="rgb(200, 212, 230)" d="M 348.77,86.81 C 348.76,83.7 353.52,79.94 356.58,80.55 355.98,81.61 355.45,82.57 354.9,83.52 354.37,84.44 353.82,85.36 353.25,86.34 353.17,85.91 353.09,85.5 352.97,84.88 351.6,85.51 350.31,86.1 348.77,86.81 Z M 348.77,86.81" />
        <path id="canvas4-bezier127" stroke="none" fill="rgb(200, 212, 230)" d="M 429.49,200.26 C 426.63,197.18 426.32,189.58 428.76,185.64 429.02,190.84 429.25,195.55 429.49,200.26 Z M 429.49,200.26" />
        <path id="canvas4-bezier128" stroke="none" fill="rgb(200, 212, 230)" d="M 39.28,112.35 C 39.28,115.55 39.35,118.76 39.22,121.96 39.2,122.49 38.33,122.99 37.85,123.5 37.39,122.97 36.61,122.48 36.51,121.89 35.94,118.38 37.32,115.31 39.28,112.35 Z M 39.28,112.35" />
        <path id="canvas4-bezier129" stroke="none" fill="rgb(200, 212, 230)" d="M 116.16,108.75 C 117.05,106.34 119.06,105.88 121.31,106.21 123.76,106.57 125.15,108.13 125.14,111.15 123.96,110.37 122.83,109.48 121.58,108.84 120.96,108.53 120.08,108.55 119.37,108.69 118.39,108.87 117.45,109.31 116.5,109.63 L 116.16,108.75 Z M 116.16,108.75" />
        <path id="canvas4-bezier130" stroke="none" fill="rgb(200, 212, 230)" d="M 172.64,107.86 C 173.09,111.32 173.54,114.77 173.99,118.24 171.95,118.63 170.93,118.22 171.11,116.23 171.36,113.42 171.56,110.6 171.78,107.79 172.06,107.81 172.35,107.84 172.64,107.86 Z M 172.64,107.86" />
        <path id="canvas4-bezier131" stroke="none" fill="rgb(200, 212, 230)" d="M 338.13,111.01 C 339.16,112.71 340.01,114.13 340.89,115.53 342.07,117.41 341.36,119.55 338.9,121.05 337.52,117.78 338.43,114.46 338.13,111.01 Z M 338.13,111.01" />
        <path id="canvas4-bezier132" stroke="none" fill="rgb(200, 212, 230)" d="M 396.79,132.54 L 396.79,144.05 C 392.73,142.27 392.94,142.36 395.36,138.36 396.46,136.53 396.45,134.04 396.79,132.54 Z M 396.79,132.54" />
        <path id="canvas4-bezier133" stroke="none" fill="rgb(200, 212, 230)" d="M 374.82,64.32 C 377.8,65.82 378.2,68.17 377.67,71.11 L 374.82,71.11 374.82,64.32 Z M 374.82,64.32" />
        <path id="canvas4-bezier134" stroke="none" fill="rgb(200, 212, 230)" d="M 70.75,66.14 C 70.78,66.75 70.82,67.29 70.83,67.84 70.84,68.89 70.83,69.95 70.83,71.17 L 68.04,71.17 C 67.48,68.63 68.15,67.35 70.75,66.14 Z M 70.75,66.14" />
        <path id="canvas4-bezier135" stroke="none" fill="rgb(200, 212, 230)" d="M 82.17,138.09 C 82.42,134.5 86.91,134.78 87.12,131.62 86.85,135.54 85.74,137.02 82.17,138.09 Z M 82.17,138.09" />
        <path id="canvas4-bezier136" stroke="none" fill="rgb(200, 212, 230)" d="M 51.57,190.58 C 51.34,186.75 55.33,186.25 56.5,183.44 L 57.31,184.06 C 56.39,185.16 55.49,186.27 54.55,187.35 53.58,188.45 52.57,189.51 51.57,190.58 Z M 51.57,190.58" />
        <path id="canvas4-bezier137" stroke="none" fill="rgb(200, 212, 230)" d="M 286.57,106.31 C 290.95,106.13 292.25,107.25 292.71,111.26 290.71,109.65 288.89,108.18 286.57,106.31 Z M 286.57,106.31" />
        <path id="canvas4-bezier138" stroke="none" fill="rgb(200, 212, 230)" d="M 186.27,88.35 C 189.76,90.3 189.76,90.51 186.27,93.82 L 186.27,88.35 Z M 186.27,88.35" />
        <path id="canvas4-bezier139" stroke="none" fill="rgb(200, 212, 230)" d="M 203.99,32.75 C 204.23,29.84 205.27,27.67 207.79,26.62 208.04,26.81 208.29,27.01 208.54,27.2 L 203.99,32.75 Z M 203.99,32.75" />
        <path id="canvas4-bezier140" stroke="none" fill="rgb(200, 212, 230)" d="M 348.42,40.28 C 350.2,41.2 352.23,41.56 351.22,44.19 L 348.42,44.19 348.42,40.28 Z M 348.42,40.28" />
        <path id="canvas4-bezier141" stroke="none" fill="rgb(200, 212, 230)" d="M 47.37,97.13 C 48.24,95.49 49.03,94.01 49.82,92.52 49.98,92.54 50.13,92.56 50.29,92.58 L 50.29,97.13 47.37,97.13 Z M 47.37,97.13" />
        <path id="canvas4-bezier142" stroke="none" fill="rgb(200, 212, 230)" d="M 406.88,188.66 C 407.55,187.87 408.06,187.27 408.87,186.32 409.49,187.97 410.01,189.39 410.54,190.8 410.32,190.95 410.09,191.1 409.87,191.26 408.9,190.42 407.94,189.58 406.88,188.66 Z M 406.88,188.66" />
        <path id="canvas4-bezier143" stroke="none" fill="rgb(200, 212, 230)" d="M 302.79,157.75 C 304.86,157.57 306.97,157.29 308.03,160.63 305.91,159.77 304.26,159.1 302.6,158.42 302.66,158.2 302.73,157.97 302.79,157.75 Z M 302.79,157.75" />
        <path id="canvas4-bezier144" stroke="none" fill="rgb(200, 212, 230)" d="M 425.13,161.39 C 425.39,161.96 425.64,162.53 425.96,163.24 425.13,163.71 424.4,164.12 423.67,164.53 423.46,164.41 423.24,164.28 423.03,164.15 423.5,163.15 423.96,162.15 424.42,161.15 L 425.13,161.39 Z M 425.13,161.39" />
        <path id="canvas4-bezier145" stroke="none" fill="rgb(200, 212, 230)" d="M 372.72,85.96 C 371.79,84.37 370.66,82.44 369.57,80.57 372.56,81.26 371.98,84.26 372.72,85.96 Z M 372.72,85.96" />
        <path id="canvas4-largeA2" stroke="none" fill="rgb(16, 67, 145)" d="M 275.73,231.39 L 278.28,231.39 C 277.86,230.4 277.5,229.55 277,228.37 276.5,229.55 276.14,230.41 275.73,231.39 Z M 287.02,238.66 C 285.28,238.66 283.79,238.81 282.35,238.59 281.84,238.51 281.21,237.64 281.04,237.01 280.68,235.73 280.01,235.44 278.87,235.52 277.39,235.62 275.9,235.57 274.42,235.53 273.73,235.51 273.4,235.81 273.16,236.46 272.37,238.65 272.31,238.67 270.13,238.67 269.15,238.67 268.18,238.67 267.09,238.67 268.1,236.4 269.03,234.3 269.97,232.21 271.45,228.95 272.93,225.69 274.42,222.44 274.96,221.25 275.47,220.05 276.07,218.89 276.24,218.56 276.66,218.16 276.95,218.18 277.29,218.21 277.75,218.57 277.92,218.92 278.99,221.22 279.99,223.57 281.04,225.89 282.65,229.47 284.28,233.05 285.92,236.63 286.19,237.23 286.55,237.8 287.02,238.66 Z M 287.02,238.66" />
        <path id="canvas4-largeA3" stroke="none" fill="rgb(16, 67, 145)" d="M 158.64,231.16 L 161.19,231.16 C 160.77,230.17 160.41,229.32 159.91,228.14 159.41,229.32 159.05,230.18 158.64,231.16 Z M 169.93,238.43 C 168.19,238.43 166.7,238.58 165.26,238.36 164.75,238.28 164.12,237.41 163.95,236.78 163.59,235.5 162.92,235.21 161.78,235.29 160.3,235.39 158.81,235.34 157.33,235.3 156.64,235.28 156.31,235.58 156.07,236.23 155.28,238.42 155.22,238.44 153.04,238.44 152.06,238.44 151.09,238.44 150,238.44 151.01,236.17 151.94,234.07 152.88,231.98 154.36,228.72 155.84,225.46 157.33,222.21 157.87,221.02 158.38,219.82 158.98,218.66 159.15,218.33 159.57,217.93 159.86,217.95 160.2,217.98 160.66,218.34 160.83,218.69 161.9,220.99 162.9,223.34 163.95,225.66 165.56,229.24 167.19,232.82 168.83,236.4 169.1,237 169.46,237.57 169.93,238.43 Z M 169.93,238.43" />
    </g>
</svg>
