<?xml version="1.0" encoding="UTF-8"?>
<!DOCTYPE svg PUBLIC "-//W3C//DTD SVG 1.1//EN" "http://www.w3.org/Graphics/SVG/1.1/DTD/svg11.dtd">
<svg version="1.1" xmlns="http://www.w3.org/2000/svg" xmlns:xlink="http://www.w3.org/1999/xlink" width="160" height="160"  xml:space="preserve" id="tt">
    <!-- Generated by PaintCode - http://www.paintcodeapp.com -->
    <path id="tt-oval7" stroke="none" fill="rgb(153, 165, 87)" d="M 70.3,57.45 C 70.3,64.63 64.48,70.45 57.3,70.45 50.12,70.45 44.3,64.63 44.3,57.45 44.3,50.27 50.12,44.45 57.3,44.45 64.48,44.45 70.3,50.27 70.3,57.45 Z M 70.3,57.45" />
    <path id="tt-oval8" stroke="none" fill="rgb(153, 165, 87)" d="M 92.45,35.3 C 92.45,42.48 86.63,48.3 79.45,48.3 72.27,48.3 66.45,42.48 66.45,35.3 66.45,28.12 72.27,22.3 79.45,22.3 86.63,22.3 92.45,28.12 92.45,35.3 Z M 92.45,35.3" />
    <path id="tt-oval9" stroke="none" fill="rgb(153, 165, 87)" d="M 114.55,57.45 C 114.55,64.63 108.73,70.45 101.55,70.45 94.37,70.45 88.55,64.63 88.55,57.45 88.55,50.27 94.37,44.45 101.55,44.45 108.73,44.45 114.55,50.27 114.55,57.45 Z M 114.55,57.45" />
    <path id="tt-oval10" stroke="none" fill="rgb(153, 165, 87)" d="M 136.7,79.55 C 136.7,86.73 130.88,92.55 123.7,92.55 116.52,92.55 110.7,86.73 110.7,79.55 110.7,72.37 116.52,66.55 123.7,66.55 130.88,66.55 136.7,72.37 136.7,79.55 Z M 136.7,79.55" />
    <path id="tt-oval11" stroke="none" fill="rgb(153, 165, 87)" d="M 158.85,101.7 C 158.85,108.88 153.03,114.7 145.85,114.7 138.67,114.7 132.85,108.88 132.85,101.7 132.85,94.52 138.67,88.7 145.85,88.7 153.03,88.7 158.85,94.52 158.85,101.7 Z M 158.85,101.7" />
    <path id="tt-oval12" stroke="none" fill="rgb(153, 165, 87)" d="M 114.55,13.15 C 114.55,20.33 108.73,26.15 101.55,26.15 94.37,26.15 88.55,20.33 88.55,13.15 88.55,5.97 94.37,0.15 101.55,0.15 108.73,0.15 114.55,5.97 114.55,13.15 Z M 114.55,13.15" />
    <path id="tt-regsitrationmark" stroke="none" fill="rgb(153, 165, 87)" d="M 123.83,125.88 C 124.64,125.88 125.55,125.92 125.55,124.84 125.55,123.97 124.85,123.85 124.2,123.85 L 122.86,123.85 122.86,125.88 123.83,125.88 Z M 122.86,129.32 L 122.02,129.32 122.02,123.15 124.39,123.15 C 125.77,123.15 126.39,123.75 126.39,124.85 126.39,125.95 125.68,126.42 124.96,126.58 L 126.68,129.32 125.73,129.32 124.05,126.58 122.86,126.58 122.86,129.32 Z M 128.3,126.23 C 128.3,123.72 126.44,121.74 123.95,121.74 121.46,121.74 119.59,123.72 119.59,126.23 119.59,128.73 121.46,130.72 123.95,130.72 126.44,130.72 128.3,128.73 128.3,126.23 Z M 129.15,126.23 C 129.15,129.08 126.82,131.42 123.95,131.42 121.08,131.42 118.76,129.08 118.76,126.23 118.76,123.37 121.08,121.04 123.95,121.04 126.82,121.04 129.15,123.37 129.15,126.23 Z M 129.15,126.23" />
    <path id="tt-oval5" stroke="none" fill="rgb(12, 81, 130)" d="M 92.45,123.85 C 92.45,131.03 86.63,136.85 79.45,136.85 72.27,136.85 66.45,131.03 66.45,123.85 66.45,116.67 72.27,110.85 79.45,110.85 86.63,110.85 92.45,116.67 92.45,123.85 Z M 92.45,123.85" />
    <path id="tt-oval6" stroke="none" fill="rgb(12, 81, 130)" d="M 114.55,101.7 C 114.55,108.88 108.73,114.7 101.55,114.7 94.37,114.7 88.55,108.88 88.55,101.7 88.55,94.52 94.37,88.7 101.55,88.7 108.73,88.7 114.55,94.52 114.55,101.7 Z M 114.55,101.7" />
    <path id="tt-oval4" stroke="none" fill="rgb(12, 81, 130)" d="M 70.3,146 C 70.3,153.18 64.48,159 57.3,159 50.12,159 44.3,153.18 44.3,146 44.3,138.82 50.12,133 57.3,133 64.48,133 70.3,138.82 70.3,146 Z M 70.3,146" />
    <path id="tt-oval3" stroke="none" fill="rgb(12, 81, 130)" d="M 70.3,101.7 C 70.3,108.88 64.48,114.7 57.3,114.7 50.12,114.7 44.3,108.88 44.3,101.7 44.3,94.52 50.12,88.7 57.3,88.7 64.48,88.7 70.3,94.52 70.3,101.7 Z M 70.3,101.7" />
    <path id="tt-oval2" stroke="none" fill="rgb(12, 81, 130)" d="M 47.15,79.55 C 47.15,86.73 41.33,92.55 34.15,92.55 26.97,92.55 21.15,86.73 21.15,79.55 21.15,72.37 26.97,66.55 34.15,66.55 41.33,66.55 47.15,72.37 47.15,79.55 Z M 47.15,79.55" />
    <path id="tt-oval" stroke="none" fill="rgb(12, 81, 130)" d="M 26,57.45 C 26,64.63 20.18,70.45 13,70.45 5.82,70.45 0,64.63 0,57.45 0,50.27 5.82,44.45 13,44.45 20.18,44.45 26,50.27 26,57.45 Z M 26,57.45" />
</svg>
