<?xml version="1.0" encoding="utf-8"?>
<!-- Uploaded to: SVG Repo, www.svgrepo.com, Generator: SVG Repo Mixer Tools -->
<svg width="800px" height="800px" viewBox="0 0 1024 1024" class="icon"  version="1.1" xmlns="http://www.w3.org/2000/svg"><path d="M508.93312 511.63136m-494.24384 0a494.24384 494.24384 0 1 0 988.48768 0 494.24384 494.24384 0 1 0-988.48768 0Z" fill="#97CF43" /><path d="M508.3904 511.63136m-434.79552 0a434.79552 434.79552 0 1 0 869.59104 0 434.79552 434.79552 0 1 0-869.59104 0Z" fill="#D4AC6E" /><path d="M509.47584 76.84096c239.62624 0.5888 433.7152 194.97472 433.7152 434.7392 0 239.76448-194.08896 434.1504-433.7152 434.7392V76.84096z" fill="#F4C692" /><path d="M561.7664 338.37568m-18.0736 0a18.0736 18.0736 0 1 0 36.1472 0 18.0736 18.0736 0 1 0-36.1472 0Z" fill="#967951" /><path d="M561.7664 653.9264m-18.0736 0a18.0736 18.0736 0 1 0 36.1472 0 18.0736 18.0736 0 1 0-36.1472 0Z" fill="#967951" /><path d="M635.5712 395.6992m-18.0736 0a18.0736 18.0736 0 1 0 36.1472 0 18.0736 18.0736 0 1 0-36.1472 0Z" fill="#967951" /><path d="M635.5712 590.70976m-18.0736 0a18.0736 18.0736 0 1 0 36.1472 0 18.0736 18.0736 0 1 0-36.1472 0Z" fill="#967951" /><path d="M665.4464 488.96m-18.0736 0a18.0736 18.0736 0 1 0 36.1472 0 18.0736 18.0736 0 1 0-36.1472 0Z" fill="#967951" /><path d="M456.09984 338.37568m-18.0736 0a18.0736 18.0736 0 1 0 36.1472 0 18.0736 18.0736 0 1 0-36.1472 0Z" fill="#967951" /><path d="M456.09984 653.9264m-18.0736 0a18.0736 18.0736 0 1 0 36.1472 0 18.0736 18.0736 0 1 0-36.1472 0Z" fill="#967951" /><path d="M382.29504 395.6992m-18.0736 0a18.0736 18.0736 0 1 0 36.1472 0 18.0736 18.0736 0 1 0-36.1472 0Z" fill="#967951" /><path d="M382.29504 590.70976m-18.0736 0a18.0736 18.0736 0 1 0 36.1472 0 18.0736 18.0736 0 1 0-36.1472 0Z" fill="#967951" /><path d="M352.41984 488.96m-18.0736 0a18.0736 18.0736 0 1 0 36.1472 0 18.0736 18.0736 0 1 0-36.1472 0Z" fill="#967951" /><path d="M538.76736 409.02144m-10.42432 0a10.42432 10.42432 0 1 0 20.84864 0 10.42432 10.42432 0 1 0-20.84864 0Z" fill="#967951" /><path d="M538.76736 591.01184m-10.42432 0a10.42432 10.42432 0 1 0 20.84864 0 10.42432 10.42432 0 1 0-20.84864 0Z" fill="#967951" /><path d="M581.33504 442.08128m-10.42432 0a10.42432 10.42432 0 1 0 20.84864 0 10.42432 10.42432 0 1 0-20.84864 0Z" fill="#967951" /><path d="M581.33504 554.55232m-10.42432 0a10.42432 10.42432 0 1 0 20.84864 0 10.42432 10.42432 0 1 0-20.84864 0Z" fill="#967951" /><path d="M598.56896 495.86688m-10.42432 0a10.42432 10.42432 0 1 0 20.84864 0 10.42432 10.42432 0 1 0-20.84864 0Z" fill="#967951" /><path d="M477.82912 409.02144m-10.42432 0a10.42432 10.42432 0 1 0 20.84864 0 10.42432 10.42432 0 1 0-20.84864 0Z" fill="#967951" /><path d="M477.82912 591.01184m-10.42432 0a10.42432 10.42432 0 1 0 20.84864 0 10.42432 10.42432 0 1 0-20.84864 0Z" fill="#967951" /><path d="M435.26144 442.08128m-10.42432 0a10.42432 10.42432 0 1 0 20.84864 0 10.42432 10.42432 0 1 0-20.84864 0Z" fill="#967951" /><path d="M435.26144 554.55232m-10.42432 0a10.42432 10.42432 0 1 0 20.84864 0 10.42432 10.42432 0 1 0-20.84864 0Z" fill="#967951" /><path d="M418.03264 495.86688m-10.42432 0a10.42432 10.42432 0 1 0 20.84864 0 10.42432 10.42432 0 1 0-20.84864 0Z" fill="#967951" /></svg>