<?xml version="1.0" encoding="UTF-8"?>
<!DOCTYPE svg PUBLIC "-//W3C//DTD SVG 1.1//EN" "http://www.w3.org/Graphics/SVG/1.1/DTD/svg11.dtd">
<svg version="1.1" xmlns="http://www.w3.org/2000/svg" xmlns:xlink="http://www.w3.org/1999/xlink" width="600" height="700"  xml:space="preserve" id="canvas1">
    <!-- Generated by PaintCode - http://www.paintcodeapp.com -->
    <defs>
        <filter id="canvas1-shadow-outer" filterUnits="objectBoundingBox">
            <feGaussianBlur stdDeviation="5" />
            <feOffset dx="4" dy="4" result="blur" />
            <feFlood flood-color="rgb(0, 0, 0)" flood-opacity="0.5" />
            <feComposite in2="blur" operator="in" result="colorShadow" />
            <feComposite in="SourceGraphic" in2="colorShadow" operator="over" />
        </filter>
        <filter id="canvas1-shadow-outer" filterUnits="objectBoundingBox">
            <feGaussianBlur stdDeviation="5" />
            <feOffset dx="4" dy="4" result="blur" />
            <feFlood flood-color="rgb(0, 0, 0)" flood-opacity="0.5" />
            <feComposite in2="blur" operator="in" result="colorShadow" />
            <feComposite in="SourceGraphic" in2="colorShadow" operator="over" />
        </filter>
    </defs>
    <g id="canvas1-stopwatchsvgGroup" filter="url(#canvas1-shadow-outer)">
        <path id="canvas1-bezier" stroke="none" fill="rgb(197, 211, 221)" d="M 166.44,277.21 L 52.33,277.21 C 47.73,277.21 44,273.77 44,269.54 44,265.31 47.73,261.88 52.33,261.88 L 166.44,261.88 C 171.04,261.88 174.77,265.31 174.77,269.54 174.77,273.77 171.04,277.21 166.44,277.21 Z M 166.44,277.21" />
        <rect id="canvas1-rectangle" stroke="none" fill="rgb(197, 211, 221)" x="75.85" y="310" width="103.4" height="15.35" rx="7.68" />
        <rect id="canvas1-rectangle2" stroke="none" fill="rgb(197, 211, 221)" x="127.3" y="350.2" width="69.3" height="15.35" rx="7.68" />
        <rect id="canvas1-rectangle3" stroke="none" fill="rgb(197, 211, 221)" x="83.6" y="213.75" width="103.4" height="15.35" rx="7.68" />
        <rect id="canvas1-rectangle4" stroke="none" fill="rgb(197, 211, 221)" x="135.05" y="173.55" width="69.3" height="15.35" rx="7.68" />
        <path id="canvas1-bezier2" stroke="none" fill="rgb(254, 223, 48)" d="M 269.47,134.21 L 230.51,88.89 C 227.75,85.69 222.91,85.32 219.7,88.08 L 195.45,108.93 C 193.91,110.25 192.96,112.14 192.81,114.16 192.65,116.19 193.31,118.19 194.64,119.73 L 233.6,165.05 C 235.12,166.81 237.26,167.72 239.41,167.72 241.18,167.72 242.96,167.11 244.41,165.87 L 268.66,145.02 C 270.2,143.69 271.15,141.81 271.3,139.78 271.46,137.76 270.8,135.75 269.47,134.21 Z M 269.47,134.21" />
        <path id="canvas1-bezier3" stroke="none" fill="rgb(215, 170, 2)" d="M 246.68,74.99 L 230.23,55.86 C 227.47,52.65 222.63,52.28 219.42,55.04 L 162.84,103.69 C 161.29,105.02 160.34,106.9 160.19,108.92 160.04,110.95 160.7,112.96 162.02,114.5 L 178.47,133.63 C 179.99,135.4 182.13,136.3 184.29,136.3 186.06,136.3 187.83,135.69 189.28,134.45 L 245.86,85.8 C 247.4,84.48 248.35,82.59 248.51,80.57 248.66,78.54 248,76.53 246.68,74.99 Z M 246.68,74.99" />
        <path id="canvas1-bezier4" stroke="none" fill="rgb(254, 223, 48)" d="M 522.98,114.16 C 522.83,112.14 521.88,110.25 520.34,108.93 L 496.09,88.08 C 492.88,85.32 488.04,85.68 485.28,88.89 L 446.32,134.21 C 444.99,135.75 444.34,137.76 444.49,139.78 444.64,141.81 445.59,143.69 447.13,145.02 L 471.38,165.87 C 472.83,167.11 474.61,167.72 476.38,167.72 478.53,167.72 480.67,166.81 482.19,165.05 L 521.15,119.73 C 522.48,118.19 523.13,116.19 522.98,114.16 Z M 522.98,114.16" />
        <path id="canvas1-bezier5" stroke="none" fill="rgb(215, 170, 2)" d="M 552.96,103.69 L 496.37,55.04 C 494.83,53.72 492.83,53.05 490.8,53.21 488.77,53.37 486.89,54.32 485.57,55.86 L 469.11,74.99 C 466.35,78.2 466.72,83.04 469.93,85.8 L 526.51,134.45 C 527.91,135.65 529.68,136.3 531.51,136.3 531.7,136.3 531.89,136.29 532.09,136.28 534.11,136.12 535.99,135.17 537.32,133.63 L 553.77,114.49 C 556.53,111.29 556.16,106.45 552.96,103.69 Z M 552.96,103.69" />
        <rect id="canvas1-rectangle5" stroke="none" fill="rgb(0, 85, 163)" x="335.45" y="43.32" width="47" height="67.15" />
        <path id="canvas1-bezier6" stroke="none" fill="rgb(4, 115, 206)" d="M 387.8,0.33 L 301.41,0.33 C 293.3,0.33 286.73,6.9 286.73,15 L 286.73,32.83 C 286.73,40.94 293.3,47.51 301.41,47.51 L 387.34,47.51 408.2,41.88 408.2,6.31 387.8,0.33 Z M 387.8,0.33" />
        <path id="canvas1-bezier7" stroke="none" fill="rgb(0, 85, 163)" d="M 416.53,0.33 L 385.88,0.33 C 393.99,0.33 400.56,6.9 400.56,15 L 400.56,32.83 C 400.56,40.94 393.99,47.51 385.88,47.51 L 416.53,47.51 C 424.64,47.51 431.21,40.94 431.21,32.83 L 431.21,15 C 431.21,6.9 424.64,0.33 416.53,0.33 Z M 416.53,0.33" />
        <path id="canvas1-bezier8" stroke="none" fill="rgb(38, 166, 254)" d="M 308.43,471.08 C 203.25,443.17 140.62,335.28 168.53,230.1 191.04,145.3 265.54,88.15 348.69,83.83 368.67,82.79 543.49,114.86 543.49,274.62 543.49,391.69 436.7,484.48 343.64,477.11 331.95,476.19 320.17,474.2 308.43,471.08 Z M 308.43,471.08" />
        <path id="canvas1-bezier9" stroke="none" fill="rgb(5, 147, 252)" d="M 358.97,83.61 C 353.81,83.61 348.7,83.81 343.64,84.2 445.3,92.02 525.35,176.98 525.35,280.64 525.35,384.3 445.3,469.26 343.64,477.09 348.7,477.47 353.81,477.68 358.97,477.68 467.79,477.68 556,389.46 556,280.64 556,171.83 467.79,83.61 358.97,83.61 Z M 358.97,83.61" />
        <circle id="canvas1-oval" stroke="none" fill="rgb(255, 243, 239)" cx="358.97" cy="280.64" r="153.44" />
        <path id="canvas1-bezier10" stroke="none" fill="rgb(241, 240, 240)" d="M 378.8,128.49 C 366.82,126.93 354.99,126.8 343.47,127.96 345.02,128.12 346.58,128.29 348.15,128.49 432.18,139.44 491.42,216.44 480.47,300.47 471.08,372.53 413.13,426.35 343.82,433.33 426.01,441.53 500.37,382.94 511.12,300.47 522.07,216.44 462.83,139.44 378.8,128.49 Z M 378.8,128.49" />
        <g id="canvas1-group2">
            <rect id="canvas1-rectangle6" stroke="none" fill="rgb(182, 196, 207)" x="351.88" y="137.11" width="14.25" height="33.95" rx="7.12" />
            <path id="canvas1-bezier11" stroke="none" fill="rgb(182, 196, 207)" d="M 442.13,205.12 C 440.31,205.12 438.48,204.43 437.09,203.04 434.31,200.25 434.31,195.74 437.09,192.95 L 451.02,179.02 C 453.81,176.23 458.32,176.23 461.11,179.02 463.89,181.8 463.89,186.32 461.11,189.1 L 447.18,203.04 C 445.78,204.43 443.96,205.12 442.13,205.12 Z M 442.13,205.12" />
            <rect id="canvas1-rectangle7" stroke="none" fill="rgb(182, 196, 207)" x="469.73" y="273.71" width="33.95" height="14.25" rx="7.12" />
            <path id="canvas1-bezier12" stroke="none" fill="rgb(182, 196, 207)" d="M 456.69,385.06 C 454.87,385.06 453.04,384.36 451.65,382.97 L 437.72,369.04 C 434.93,366.25 434.93,361.74 437.72,358.95 440.51,356.17 445.02,356.17 447.81,358.95 L 461.74,372.88 C 464.52,375.67 464.52,380.18 461.74,382.97 460.35,384.36 458.52,385.06 456.69,385.06 Z M 456.69,385.06" />
            <rect id="canvas1-rectangle8" stroke="none" fill="rgb(182, 196, 207)" x="352.78" y="391.56" width="14.25" height="33.95" rx="7.12" />
            <path id="canvas1-bezier13" stroke="none" fill="rgb(182, 196, 207)" d="M 262.83,385.69 C 261,385.69 259.18,384.99 257.79,383.6 255,380.81 255,376.3 257.79,373.51 L 271.72,359.58 C 274.5,356.79 279.02,356.79 281.8,359.58 284.59,362.36 284.59,366.88 281.8,369.66 L 267.87,383.6 C 266.48,384.99 264.65,385.69 262.83,385.69 Z M 262.83,385.69" />
            <rect id="canvas1-rectangle9" stroke="none" fill="rgb(182, 196, 207)" x="215.23" y="274.61" width="33.95" height="14.25" rx="7.12" />
            <path id="canvas1-bezier14" stroke="none" fill="rgb(182, 196, 207)" d="M 276.13,205.75 C 274.31,205.75 272.48,205.06 271.09,203.66 L 257.16,189.73 C 254.37,186.95 254.37,182.43 257.16,179.65 259.94,176.86 264.46,176.86 267.24,179.65 L 281.18,193.58 C 283.96,196.36 283.96,200.88 281.18,203.66 279.78,205.06 277.96,205.75 276.13,205.75 Z M 276.13,205.75" />
        </g>
        <rect id="canvas1-rectangle10" stroke="none" fill="rgb(103, 141, 152)" x="351.28" y="210.37" width="15.35" height="66.85" rx="7.6" />
        <path id="canvas1-bezier15" stroke="none" fill="rgb(103, 141, 152)" d="M 423.44,350.99 C 421.48,350.99 419.52,350.25 418.02,348.75 L 362.24,292.96 C 359.24,289.97 359.24,285.12 362.24,282.13 365.23,279.13 370.08,279.13 373.08,282.13 L 428.86,337.91 C 431.85,340.91 431.85,345.76 428.86,348.75 427.36,350.24 425.4,350.99 423.44,350.99 Z M 423.44,350.99" />
        <circle id="canvas1-oval2" stroke="none" fill="rgb(62, 89, 89)" cx="360" cy="279.85" r="15.4" />
    </g>
    
    <text  fill="rgb(0, 85, 163)" filter="url(#canvas1-shadow-outer)" font-family="LucidaGrande, 'Lucida Grande', 'Lucida Sans Unicode', 'Lucida Sans', Geneva, Verdana, sans-serif" font-size="64" x="218.97" y="499" text-anchor="middle"><tspan x="300" y="580">MAUI
</tspan><tspan x="300" y="656">Stopwatch</tspan></text>
</svg>
